<?xml version="1.0" encoding="UTF-8" standalone="no"?>
<svg width="302px" height="120px" viewBox="0 0 302 120" version="1.1" xmlns="http://www.w3.org/2000/svg" xmlns:xlink="http://www.w3.org/1999/xlink">
    <!-- Generator: Sketch 41 (35326) - http://www.bohemiancoding.com/sketch -->
    <title>light blue panel elements</title>
    <desc>Created with Sketch.</desc>
    <defs>
        <polygon id="path-1" points="0 54 119 54 119 0 0 0"></polygon>
        <mask id="mask-2" maskContentUnits="userSpaceOnUse" maskUnits="objectBoundingBox" x="0" y="0" width="119" height="54" fill="white">
            <use xlink:href="#path-1"></use>
        </mask>
        <path d="M16,32 C7.1632,32 0,24.8368 0,16 C0,7.1632 7.1632,0 16,0 C24.8368,0 32,7.1632 32,16 C32,24.8368 24.8368,32 16,32 Z" id="path-3"></path>
        <mask id="mask-4" maskContentUnits="userSpaceOnUse" maskUnits="objectBoundingBox" x="0" y="0" width="32" height="32" fill="white">
            <use xlink:href="#path-3"></use>
        </mask>
        <path d="M16,32 C7.1632,32 0,24.8368 0,16 C0,7.1632 7.1632,0 16,0 C24.8368,0 32,7.1632 32,16 C32,24.8368 24.8368,32 16,32 Z" id="path-5"></path>
        <mask id="mask-6" maskContentUnits="userSpaceOnUse" maskUnits="objectBoundingBox" x="0" y="0" width="32" height="32" fill="white">
            <use xlink:href="#path-5"></use>
        </mask>
    </defs>
    <g id="Symbols" stroke="none" stroke-width="1" fill="none" fill-rule="evenodd">
        <g id="Header-Illustration-Desktop" transform="translate(-769.000000, -30.000000)">
            <g id="Panel-360x180---BLUE">
                <g transform="translate(740.000000, 0.000000)">
                    <g id="light-blue-panel-elements" transform="translate(30.000000, 30.000000)">
                        <g id="levels">
                            <g id="level" transform="translate(40.000000, 0.000000)">
                                <path d="M5,0 L5,54" id="Stroke-1" stroke="#FFFFFF" stroke-width="4"></path>
                                <polygon id="Fill-22" fill="#EE2F24" points="0 30 10 30 10 22 0 22"></polygon>
                            </g>
                            <g id="level" transform="translate(20.000000, 0.000000)">
                                <path d="M5,0 L5,54" id="Stroke-1" stroke="#FFFFFF" stroke-width="4"></path>
                                <polygon id="Fill-22" fill="#EE2F24" points="0 13 10 13 10 5 0 5"></polygon>
                            </g>
                            <g id="level">
                                <path d="M5,0 L5,54" id="Stroke-1" stroke="#FFFFFF" stroke-width="4"></path>
                                <polygon id="Fill-22" fill="#EE2F24" points="0 40 10 40 10 32 0 32"></polygon>
                            </g>
                        </g>
                        <g id="schema" transform="translate(65.000000, 0.000000)">
                            <path d="M6,19 L48,47.1081101" id="Stroke-23" stroke="#FEBC2A" stroke-width="4"></path>
                            <path d="M48,19 L6,47.1081101" id="Stroke-24" stroke="#FEBC2A" stroke-width="4"></path>
                            <path d="M6,19.2774974 C6,14.8530074 8.35286136,10.913782 11.9539332,8.48620112 C14.3183911,6.89225552 17.2209792,5.95001221 20.349,5.95001221 L33.651,5.95001221 C41.543,5.95001221 48,11.9478945 48,19.2774974 L48,47.1081101 L6,47.1081101 L6,19.2774974 Z" id="Stroke-25" stroke="#FEBC2A" stroke-width="4"></path>
                            <path d="M27,33.0172367 L27,4" id="Stroke-27" stroke="#FEBC2A" stroke-width="4"></path>
                            <path d="M33,6 C33,9.3138 30.3138,12 27,12 C23.6862,12 21,9.3138 21,6 C21,2.6862 23.6862,0 27,0 C30.3138,0 33,2.6862 33,6" id="Fill-29" fill="#173963"></path>
                            <path d="M27,39 C23.6862,39 21,36.3138 21,33 C21,29.6862 23.6862,27 27,27 C30.3138,27 33,29.6862 33,33 C33,36.3138 30.3138,39 27,39 Z" id="Fill-31" fill="#173963"></path>
                            <path d="M54,48 C54,51.3138 51.3138,54 48,54 C44.6862,54 42,51.3138 42,48 C42,44.6862 44.6862,42 48,42 C51.3138,42 54,44.6862 54,48" id="Fill-33" fill="#173963"></path>
                            <path d="M6,54 C2.6862,54 0,51.3138 0,48 C0,44.6862 2.6862,42 6,42 C9.3138,42 12,44.6862 12,48 C12,51.3138 9.3138,54 6,54 Z" id="Fill-35" fill="#173963"></path>
                            <path d="M54,19 C54,22.3138 51.3138,25 48,25 C44.6862,25 42,22.3138 42,19 C42,15.6862 44.6862,13 48,13 C51.3138,13 54,15.6862 54,19" id="Fill-37" fill="#173963"></path>
                            <path d="M6,25 C2.6862,25 0,22.3138 0,19 C0,15.6862 2.6862,13 6,13 C9.3138,13 12,15.6862 12,19 C12,22.3138 9.3138,25 6,25 Z" id="Fill-39" fill="#173963"></path>
                        </g>
                        <g id="buttons" transform="translate(228.000000, 5.000000)" stroke-width="4" stroke="#FEBC2A">
                            <g id="Group-66">
                                <path d="M0.1991,24.6029 L16.1991,24.6029" id="Stroke-65"></path>
                                <path d="M8.1991,14.4185 C4.3401,14.4185 1.1991,11.2775 1.1991,7.4185 C1.1991,3.5595 4.3401,0.4185 8.1991,0.4185 C12.0581,0.4185 15.1991,3.5595 15.1991,7.4185 C15.1991,11.2775 12.0581,14.4185 8.1991,14.4185" id="Fill-59" fill="#EE2F24"></path>
                            </g>
                            <g id="Group-74" transform="translate(27.000000, 0.000000)">
                                <path d="M0.737,24.6029 L16.737,24.6029" id="Stroke-73"></path>
                                <path d="M8.7372,14.4185 C4.8782,14.4185 1.7372,11.2775 1.7372,7.4185 C1.7372,3.5595 4.8782,0.4185 8.7372,0.4185 C12.5962,0.4185 15.7372,3.5595 15.7372,7.4185 C15.7372,11.2775 12.5962,14.4185 8.7372,14.4185" id="Fill-67" fill="#EE2F24"></path>
                            </g>
                            <g id="Group-82" transform="translate(55.000000, 0.000000)">
                                <path d="M8.2753,14.4185 C4.4163,14.4185 1.2753,11.2775 1.2753,7.4185 C1.2753,3.5595 4.4163,0.4185 8.2753,0.4185 C12.1343,0.4185 15.2753,3.5595 15.2753,7.4185 C15.2753,11.2775 12.1343,14.4185 8.2753,14.4185" id="Fill-75" fill="#EE2F24"></path>
                                <path d="M0.2748,24.6029 L16.2748,24.6029" id="Stroke-81"></path>
                            </g>
                        </g>
                        <g id="wave" transform="translate(0.000000, 66.000000)">
                            <polygon id="Fill-131" fill="#FFFFFF" points="0 54 119 54 119 0 0 0"></polygon>
                            <path d="M119,52 L0,52" id="Stroke-134" stroke="#CDCCCC" stroke-width="4"></path>
                            <path d="M119,27 L0,27" id="Stroke-134" stroke="#CDCCCC" stroke-width="4"></path>
                            <path d="M0,2 L119,2" id="Stroke-135" stroke="#CDCCCC" stroke-width="4"></path>
                            <g id="verticals" transform="translate(21.000000, 0.000000)" stroke="#CDCCCC" stroke-width="4">
                                <path d="M1,0 L1,54" id="Stroke-138"></path>
                                <path d="M26,0 L26,54" id="Stroke-139"></path>
                                <path d="M51,0 L51,54" id="Stroke-140"></path>
                                <path d="M76,0 L76,54" id="Stroke-141"></path>
                            </g>
                            <path d="M0,45.807 C20.025058,46 -0.183819089,8 22.0637817,8 C43.9955415,8 24.7519907,46 46.9472046,46 C69.1424185,46 48.068411,8 71.6275711,8 C95.1876081,8 74.8017179,46 97,46 C119.198282,46 96.9012145,8 119,8" id="Stroke-147" stroke="#FEBC2A" stroke-width="4"></path>
                            <use id="Fill-148" stroke="#173963" mask="url(#mask-2)" stroke-width="8" xlink:href="#path-1"></use>
                        </g>
                        <g id="Bulb" transform="translate(205.000000, 55.000000)">
                            <path d="M10.6595622,44 C10.3286822,38.2995556 8.45504,38.5239079 6.04672,35.6212195 C3.07392,32.0377832 0,28.3317073 0,18.8189431 C0,6.33134959 5.38304,0 16,0 C26.61632,0 32,6.33134959 32,18.8189431 C32,28.3317073 28.92608,32.0377832 25.95264,35.6212195 C23.5456,38.5239079 21.6777062,38.2995556 21.3468262,44 L10.6595622,44 Z" id="Fill-182" fill="#FFFFFF"></path>
                            <g id="Group-4" transform="translate(4.400000, 10.588235)" stroke="#EE2F24" stroke-width="4">
                                <path d="M11.6248544,32.2520129 C11.6248544,21.9315955 11.6248544,11.6376339 1.68559484,0.184836052" id="Stroke-184-Copy"></path>
                                <path d="M21.6248544,32.2520129 C21.6248544,21.9315955 21.6248544,11.6376339 11.6855948,0.184836052" id="Stroke-184-Copy" transform="translate(16.655225, 16.218424) scale(-1, 1) translate(-16.655225, -16.218424) "></path>
                            </g>
                            <path d="M9.99976403,46 C8.89989381,46 8,45.1 8,44.0000001 C8,42.9000001 8.89989381,42.0000001 9.99976403,42.0000001 L22.000236,42 C23.1001062,42 24,43 24,43.9999999 C24,44.9999999 23.1001062,45.9999999 22.000236,45.9999999 L9.99976403,46 Z" id="Fill-186" fill="#CDCCCC"></path>
                            <path d="M11.9996782,53.9699495 C10.8998552,53.9699495 10,53.0767109 10,51.9849748 C10,50.8932387 10.8998552,50.0000001 11.9996782,50.0000001 L20.0003218,50 C21.1001448,50 22,50.9924874 22,51.9849747 C22,52.9774621 21.1001448,53.9699494 20.0003218,53.9699494 L11.9996782,53.9699495 Z" id="Fill-186-Copy" fill="#CDCCCC"></path>
                            <path d="M11.9996782,49.9699495 C10.8998552,49.9699495 10,49.0767109 10,47.9849748 C10,46.8932387 10.8998552,46.0000001 11.9996782,46.0000001 L20.0003218,46 C21.1001448,46 22,46.9924874 22,47.9849747 C22,48.9774621 21.1001448,49.9699494 20.0003218,49.9699494 L11.9996782,49.9699495 Z" id="Fill-186-Copy-2" fill="#CDCCCC"></path>
                        </g>
                        <g id="dot-panel" transform="translate(276.000000, 82.000000) rotate(-270.000000) translate(-276.000000, -82.000000) translate(238.000000, 58.000000)" fill="#FFFFFF">
                            <path d="M73,6 C71.343,6 70,4.657 70,3 C70,1.343 71.343,0 73,0 C74.657,0 76,1.343 76,3 C76,4.657 74.657,6 73,6" id="Fill-288"></path>
                            <path d="M73,20 C71.343,20 70,18.657 70,17 C70,15.343 71.343,14 73,14 C74.657,14 76,15.343 76,17 C76,18.657 74.657,20 73,20" id="Fill-289"></path>
                            <path d="M73,34 C71.343,34 70,32.657 70,31 C70,29.343 71.343,28 73,28 C74.657,28 76,29.343 76,31 C76,32.657 74.657,34 73,34" id="Fill-290"></path>
                            <path d="M70,45 C70,43.343 71.343,42 73,42 C74.657,42 76,43.343 76,45 C76,46.657 74.657,48 73,48 C71.343,48 70,46.657 70,45 Z" id="Fill-291"></path>
                            <path d="M59,6 C57.343,6 56,4.657 56,3 C56,1.343 57.343,0 59,0 C60.657,0 62,1.343 62,3 C62,4.657 60.657,6 59,6" id="Fill-296"></path>
                            <path d="M59,20 C57.343,20 56,18.657 56,17 C56,15.343 57.343,14 59,14 C60.657,14 62,15.343 62,17 C62,18.657 60.657,20 59,20" id="Fill-297"></path>
                            <path d="M59,34 C57.343,34 56,32.657 56,31 C56,29.343 57.343,28 59,28 C60.657,28 62,29.343 62,31 C62,32.657 60.657,34 59,34" id="Fill-298"></path>
                            <path d="M59,48 C57.343,48 56,46.657 56,45 C56,43.343 57.343,42 59,42 C60.657,42 62,43.343 62,45 C62,46.657 60.657,48 59,48" id="Fill-299"></path>
                            <path d="M45,6 C43.343,6 42,4.657 42,3 C42,1.343 43.343,0 45,0 C46.657,0 48,1.343 48,3 C48,4.657 46.657,6 45,6" id="Fill-304"></path>
                            <path d="M45,20 C43.343,20 42,18.657 42,17 C42,15.343 43.343,14 45,14 C46.657,14 48,15.343 48,17 C48,18.657 46.657,20 45,20" id="Fill-305"></path>
                            <path d="M45,34 C43.343,34 42,32.657 42,31 C42,29.343 43.343,28 45,28 C46.657,28 48,29.343 48,31 C48,32.657 46.657,34 45,34" id="Fill-306"></path>
                            <path d="M45,48 C43.343,48 42,46.657 42,45 C42,43.343 43.343,42 45,42 C46.657,42 48,43.343 48,45 C48,46.657 46.657,48 45,48" id="Fill-307"></path>
                            <path d="M31,6 C29.343,6 28,4.657 28,3 C28,1.343 29.343,0 31,0 C32.657,0 34,1.343 34,3 C34,4.657 32.657,6 31,6" id="Fill-312"></path>
                            <path d="M31,20 C29.343,20 28,18.657 28,17 C28,15.343 29.343,14 31,14 C32.657,14 34,15.343 34,17 C34,18.657 32.657,20 31,20" id="Fill-313"></path>
                            <path d="M31,34 C29.343,34 28,32.657 28,31 C28,29.343 29.343,28 31,28 C32.657,28 34,29.343 34,31 C34,32.657 32.657,34 31,34" id="Fill-314"></path>
                            <path d="M31,48 C29.343,48 28,46.657 28,45 C28,43.343 29.343,42 31,42 C32.657,42 34,43.343 34,45 C34,46.657 32.657,48 31,48" id="Fill-315"></path>
                            <path d="M17,6 C15.343,6 14,4.657 14,3 C14,1.343 15.343,0 17,0 C18.657,0 20,1.343 20,3 C20,4.657 18.657,6 17,6" id="Fill-320"></path>
                            <path d="M17,20 C15.343,20 14,18.657 14,17 C14,15.343 15.343,14 17,14 C18.657,14 20,15.343 20,17 C20,18.657 18.657,20 17,20" id="Fill-321"></path>
                            <path d="M17,34 C15.343,34 14,32.657 14,31 C14,29.343 15.343,28 17,28 C18.657,28 20,29.343 20,31 C20,32.657 18.657,34 17,34" id="Fill-322"></path>
                            <path d="M17,48 C15.343,48 14,46.657 14,45 C14,43.343 15.343,42 17,42 C18.657,42 20,43.343 20,45 C20,46.657 18.657,48 17,48" id="Fill-323"></path>
                            <path d="M3,6 C1.343,6 0,4.657 0,3 C0,1.343 1.343,0 3,0 C4.657,0 6,1.343 6,3 C6,4.657 4.657,6 3,6" id="Fill-328"></path>
                            <path d="M3,20 C1.343,20 1.42108547e-14,18.657 1.42108547e-14,17 C1.42108547e-14,15.343 1.343,14 3,14 C4.657,14 6,15.343 6,17 C6,18.657 4.657,20 3,20 L17.4740411,20" id="Fill-329"></path>
                            <path d="M3,34 C1.343,34 1.42108547e-14,32.657 1.42108547e-14,31 C1.42108547e-14,29.343 1.343,28 3,28 C4.657,28 6,29.343 6,31 C6,32.657 4.657,34 3,34" id="Fill-330"></path>
                            <path d="M3,48 C1.343,48 1.42108547e-14,46.657 1.42108547e-14,45 C1.42108547e-14,43.343 1.343,42 3,42 C4.657,42 6,43.343 6,45 C6,46.657 4.657,48 3,48" id="Fill-331"></path>
                        </g>
                        <g id="Clock" transform="translate(182.000000, 2.000000)">
                            <use id="Fill-361" stroke="#173963" mask="url(#mask-4)" stroke-width="8" fill="#FEBC2A" xlink:href="#path-3"></use>
                            <path d="M21.2426407,12 L17,16.2426407" id="Stroke-386" stroke="#EE2F24" stroke-width="4"></path>
                        </g>
                        <g id="Clock-Copy" transform="translate(134.000000, 2.000000)">
                            <use id="Fill-361" stroke="#FFFFFF" mask="url(#mask-6)" stroke-width="8" fill="#EE2F24" xlink:href="#path-5"></use>
                            <path d="M21.2426407,12 L17,16.2426407" id="Stroke-386" stroke="#FEBC2A" stroke-width="4"></path>
                        </g>
                        <g id="Talk-Box" transform="translate(134.000000, 44.000000)">
                            <path d="M50,0 L6,0 C2.7,0 0,2.7 0,6 L0,56 L56,56 L56,6 C56,2.7 53.3,0 50,0 M50,4 C51.084,4 52,4.916 52,6 L52,52 L4,52 L4,6 C4,4.916 4.916,4 6,4 L50,4" id="Fill-388" fill="#FEBC2A"></path>
                            <path d="M56,52 L0,52 L0,69.858 C0,73.158 2.7,75.858 6,75.858 L50,75.858 C53.3,75.858 56,73.158 56,69.858 L56,52 Z M52,56 L52,69.858 C52,70.942 51.084,71.858 50,71.858 L6,71.858 C4.916,71.858 4,70.942 4,69.858 L4,56 L52,56 L52,56 Z" id="Fill-391" fill="#FEBC2A"></path>
                            <g id="speaker" transform="translate(8.000000, 8.000000)">
                                <path d="M4,2 C4,3.105 3.105,4 2,4 C0.895,4 0,3.105 0,2 C0,0.895 0.895,0 2,0 C3.105,0 4,0.895 4,2" id="Fill-393" fill="#CDCCCC"></path>
                                <path d="M16,2 C16,3.105 15.105,4 14,4 C12.895,4 12,3.105 12,2 C12,0.895 12.895,0 14,0 C15.105,0 16,0.895 16,2" id="Fill-395" fill="#CDCCCC"></path>
                                <path d="M22,2 C22,3.105 21.105,4 20,4 C18.895,4 18,3.105 18,2 C18,0.895 18.895,0 20,0 C21.105,0 22,0.895 22,2" id="Fill-397" fill="#CDCCCC"></path>
                                <path d="M28,2 C28,3.105 27.105,4 26,4 C24.895,4 24,3.105 24,2 C24,0.895 24.895,0 26,0 C27.105,0 28,0.895 28,2" id="Fill-399" fill="#CDCCCC"></path>
                                <path d="M40,2 C40,3.105 39.105,4 38,4 C36.895,4 36,3.105 36,2 C36,0.895 36.895,0 38,0 C39.105,0 40,0.895 40,2" id="Fill-401" fill="#CDCCCC"></path>
                                <path d="M10,8 C10,9.105 9.105,10 8,10 C6.895,10 6,9.105 6,8 C6,6.895 6.895,6 8,6 C9.105,6 10,6.895 10,8" id="Fill-403" fill="#CDCCCC"></path>
                                <path d="M16,8 C16,9.105 15.105,10 14,10 C12.895,10 12,9.105 12,8 C12,6.895 12.895,6 14,6 C15.105,6 16,6.895 16,8" id="Fill-405" fill="#CDCCCC"></path>
                                <path d="M22,8 C22,9.105 21.105,10 20,10 C18.895,10 18,9.105 18,8 C18,6.895 18.895,6 20,6 C21.105,6 22,6.895 22,8" id="Fill-407" fill="#CDCCCC"></path>
                                <path d="M28,8 C28,9.105 27.105,10 26,10 C24.895,10 24,9.105 24,8 C24,6.895 24.895,6 26,6 C27.105,6 28,6.895 28,8" id="Fill-409" fill="#CDCCCC"></path>
                                <path d="M34,8 C34,9.105 33.105,10 32,10 C30.895,10 30,9.105 30,8 C30,6.895 30.895,6 32,6 C33.105,6 34,6.895 34,8" id="Fill-411" fill="#CDCCCC"></path>
                                <path d="M40,8 C40,9.105 39.105,10 38,10 C36.895,10 36,9.105 36,8 C36,6.895 36.895,6 38,6 C39.105,6 40,6.895 40,8" id="Fill-413" fill="#EE2F24"></path>
                                <path d="M4,14 C4,15.105 3.105,16 2,16 C0.895,16 0,15.105 0,14 C0,12.895 0.895,12 2,12 C3.105,12 4,12.895 4,14" id="Fill-415" fill="#CDCCCC"></path>
                                <path d="M10,14 C10,15.105 9.105,16 8,16 C6.895,16 6,15.105 6,14 C6,12.895 6.895,12 8,12 C9.105,12 10,12.895 10,14" id="Fill-417" fill="#CDCCCC"></path>
                                <path d="M16,14 C16,15.105 15.105,16 14,16 C12.895,16 12,15.105 12,14 C12,12.895 12.895,12 14,12 C15.105,12 16,12.895 16,14" id="Fill-419" fill="#CDCCCC"></path>
                                <path d="M28,14 C28,15.105 27.105,16 26,16 C24.895,16 24,15.105 24,14 C24,12.895 24.895,12 26,12 C27.105,12 28,12.895 28,14" id="Fill-421" fill="#CDCCCC"></path>
                                <path d="M34,14 C34,15.105 33.105,16 32,16 C30.895,16 30,15.105 30,14 C30,12.895 30.895,12 32,12 C33.105,12 34,12.895 34,14" id="Fill-423" fill="#CDCCCC"></path>
                                <path d="M40,14 C40,15.105 39.105,16 38,16 C36.895,16 36,15.105 36,14 C36,12.895 36.895,12 38,12 C39.105,12 40,12.895 40,14" id="Fill-425" fill="#CDCCCC"></path>
                                <path d="M4,20 C4,21.105 3.105,22 2,22 C0.895,22 0,21.105 0,20 C0,18.895 0.895,18 2,18 C3.105,18 4,18.895 4,20" id="Fill-427" fill="#CDCCCC"></path>
                                <path d="M10,20 C10,21.105 9.105,22 8,22 C6.895,22 6,21.105 6,20 C6,18.895 6.895,18 8,18 C9.105,18 10,18.895 10,20" id="Fill-429" fill="#CDCCCC"></path>
                                <path d="M22,20 C22,21.105 21.105,22 20,22 C18.895,22 18,21.105 18,20 C18,18.895 18.895,18 20,18 C21.105,18 22,18.895 22,20" id="Fill-431" fill="#FEBC2A"></path>
                                <path d="M34,20 C34,21.105 33.105,22 32,22 C30.895,22 30,21.105 30,20 C30,18.895 30.895,18 32,18 C33.105,18 34,18.895 34,20" id="Fill-433" fill="#CDCCCC"></path>
                                <path d="M40,20 C40,21.105 39.105,22 38,22 C36.895,22 36,21.105 36,20 C36,18.895 36.895,18 38,18 C39.105,18 40,18.895 40,20" id="Fill-435" fill="#CDCCCC"></path>
                                <path d="M4,26 C4,27.105 3.105,28 2,28 C0.895,28 0,27.105 0,26 C0,24.895 0.895,24 2,24 C3.105,24 4,24.895 4,26" id="Fill-437" fill="#CDCCCC"></path>
                                <path d="M10,26 C10,27.105 9.105,28 8,28 C6.895,28 6,27.105 6,26 C6,24.895 6.895,24 8,24 C9.105,24 10,24.895 10,26" id="Fill-439" fill="#CDCCCC"></path>
                                <path d="M16,26 C16,27.105 15.105,28 14,28 C12.895,28 12,27.105 12,26 C12,24.895 12.895,24 14,24 C15.105,24 16,24.895 16,26" id="Fill-441" fill="#CDCCCC"></path>
                                <path d="M28,26 C28,27.105 27.105,28 26,28 C24.895,28 24,27.105 24,26 C24,24.895 24.895,24 26,24 C27.105,24 28,24.895 28,26" id="Fill-443" fill="#CDCCCC"></path>
                                <path d="M34,26 C34,27.105 33.105,28 32,28 C30.895,28 30,27.105 30,26 C30,24.895 30.895,24 32,24 C33.105,24 34,24.895 34,26" id="Fill-445" fill="#CDCCCC"></path>
                                <path d="M40,26 C40,27.105 39.105,28 38,28 C36.895,28 36,27.105 36,26 C36,24.895 36.895,24 38,24 C39.105,24 40,24.895 40,26" id="Fill-447" fill="#CDCCCC"></path>
                                <path d="M10,32 C10,33.105 9.105,34 8,34 C6.895,34 6,33.105 6,32 C6,30.895 6.895,30 8,30 C9.105,30 10,30.895 10,32" id="Fill-449" fill="#CDCCCC"></path>
                                <path d="M16,32 C16,33.105 15.105,34 14,34 C12.895,34 12,33.105 12,32 C12,30.895 12.895,30 14,30 C15.105,30 16,30.895 16,32" id="Fill-451" fill="#CDCCCC"></path>
                                <path d="M22,32 C22,33.105 21.105,34 20,34 C18.895,34 18,33.105 18,32 C18,30.895 18.895,30 20,30 C21.105,30 22,30.895 22,32" id="Fill-453" fill="#CDCCCC"></path>
                                <path d="M28,32 C28,33.105 27.105,34 26,34 C24.895,34 24,33.105 24,32 C24,30.895 24.895,30 26,30 C27.105,30 28,30.895 28,32" id="Fill-455" fill="#CDCCCC"></path>
                                <path d="M34,32 C34,33.105 33.105,34 32,34 C30.895,34 30,33.105 30,32 C30,30.895 30.895,30 32,30 C33.105,30 34,30.895 34,32" id="Fill-457" fill="#CDCCCC"></path>
                                <path d="M4,38 C4,39.105 3.105,40 2,40 C0.895,40 0,39.105 0,38 C0,36.895 0.895,36 2,36 C3.105,36 4,36.895 4,38" id="Fill-459" fill="#CDCCCC"></path>
                                <path d="M16,38 C16,39.105 15.105,40 14,40 C12.895,40 12,39.105 12,38 C12,36.895 12.895,36 14,36 C15.105,36 16,36.895 16,38" id="Fill-461" fill="#CDCCCC"></path>
                                <path d="M22,38 C22,39.105 21.105,40 20,40 C18.895,40 18,39.105 18,38 C18,36.895 18.895,36 20,36 C21.105,36 22,36.895 22,38" id="Fill-463" fill="#CDCCCC"></path>
                                <path d="M28,38 C28,39.105 27.105,40 26,40 C24.895,40 24,39.105 24,38 C24,36.895 24.895,36 26,36 C27.105,36 28,36.895 28,38" id="Fill-465" fill="#CDCCCC"></path>
                                <path d="M40,38 C40,39.105 39.105,40 38,40 C36.895,40 36,39.105 36,38 C36,36.895 36.895,36 38,36 C39.105,36 40,36.895 40,38" id="Fill-467" fill="#CDCCCC"></path>
                            </g>
                            <polygon id="Fill-469" fill="#173963" points="8 68 36 68 36 60 8 60"></polygon>
                            <polygon id="Fill-471" fill="#CDCCCC" points="8 68 36 68 36 64 8 64"></polygon>
                            <path d="M48,64 C48,66.209 46.209,68 44,68 C41.791,68 40,66.209 40,64 C40,61.791 41.791,60 44,60 C46.209,60 48,61.791 48,64" id="Fill-472" fill="#FFFFFF"></path>
                        </g>
                    </g>
                </g>
            </g>
        </g>
    </g>
</svg>