<?xml version="1.0" encoding="UTF-8" standalone="no"?>
<svg width="123px" height="121px" viewBox="0 0 123 121" version="1.1" xmlns="http://www.w3.org/2000/svg" xmlns:xlink="http://www.w3.org/1999/xlink">
    <!-- Generator: Sketch 41 (35326) - http://www.bohemiancoding.com/sketch -->
    <title>navy panel elements</title>
    <desc>Created with Sketch.</desc>
    <defs></defs>
    <g id="Symbols" stroke="none" stroke-width="1" fill="none" fill-rule="evenodd">
        <g id="Header-Illustration-Desktop" transform="translate(-1130.000000, -30.000000)">
            <g id="Panel-180x180---NAVY">
                <g transform="translate(1100.000000, 0.000000)">
                    <g id="navy-panel-elements" transform="translate(30.000000, 31.000000)">
                        <g id="Group-14" transform="translate(0.000000, 61.000000)">
                            <g id="Group-12" transform="translate(17.000000, 13.000000)">
                                <g id="Group-10" transform="translate(2.000000, 0.000000)" fill="#3D85C5">
                                    <path d="M0,3 C0,1.34314286 1.34314286,0 3,0 C4.65685714,0 6,1.34314286 6,3 C6,4.65685714 4.65685714,6 3,6 C1.34314286,6 0,4.65685714 0,3" id="Fill-94"></path>
                                    <path d="M0,29 C0,27.3431429 1.34314286,26 3,26 C4.65685714,26 6,27.3431429 6,29 C6,30.6568571 4.65685714,32 3,32 C1.34314286,32 0,30.6568571 0,29" id="Fill-94-Copy-2"></path>
                                    <path d="M14,3 C14,1.34314286 15.3431429,0 17,0 C18.6568571,0 20,1.34314286 20,3 C20,4.65685714 18.6568571,6 17,6 C15.3431429,6 14,4.65685714 14,3" id="Fill-94-Copy"></path>
                                    <path d="M14,29 C14,27.3431429 15.3431429,26 17,26 C18.6568571,26 20,27.3431429 20,29 C20,30.6568571 18.6568571,32 17,32 C15.3431429,32 14,30.6568571 14,29" id="Fill-94-Copy-3"></path>
                                </g>
                                <g id="Group-9" transform="translate(9.000000, 7.000000)" fill="#FDBB29">
                                    <path d="M0,3 C0,1.34333333 1.34333333,0 3,0 C4.65666667,0 6,1.34333333 6,3 C6,4.65666667 4.65666667,6 3,6 C1.34333333,6 0,4.65666667 0,3" id="Fill-97"></path>
                                    <path d="M0,15 C0,13.3433333 1.34333333,12 3,12 C4.65666667,12 6,13.3433333 6,15 C6,16.6566667 4.65666667,18 3,18 C1.34333333,18 0,16.6566667 0,15" id="Fill-97-Copy"></path>
                                </g>
                                <g id="Group-8" transform="translate(0.000000, 10.000000)" fill="#CCCCCB">
                                    <path d="M20,2 C20,0.895333333 20.8953333,0 22,0 C23.1046667,0 24,0.895333333 24,2 C24,3.10466667 23.1046667,4 22,4 C20.8953333,4 20,3.10466667 20,2" id="Fill-101-Copy"></path>
                                    <g id="Group-11">
                                        <path d="M0,2 C0,0.895333333 0.895333333,0 2,0 C3.10466667,0 4,0.895333333 4,2 C4,3.10466667 3.10466667,4 2,4 C0.895333333,4 0,3.10466667 0,2" id="Fill-101"></path>
                                        <path d="M0,10 C0,8.89533333 0.895333333,8 2,8 C3.10466667,8 4,8.89533333 4,10 C4,11.1046667 3.10466667,12 2,12 C0.895333333,12 0,11.1046667 0,10" id="Fill-101-Copy-2"></path>
                                        <path d="M20,10 C20,8.89533333 20.8953333,8 22,8 C23.1046667,8 24,8.89533333 24,10 C24,11.1046667 23.1046667,12 22,12 C20.8953333,12 20,11.1046667 20,10" id="Fill-101-Copy-3"></path>
                                    </g>
                                </g>
                            </g>
                            <polygon id="Stroke-108" stroke="#FDBB29" stroke-width="4" points="6 52 52 52 52 6 6 6"></polygon>
                            <g id="Group-13">
                                <path d="M1.75748598,10.242739 C-0.585828661,7.89972437 -0.585828661,4.10050063 1.75748598,1.75748598 C4.10050063,-0.585828661 7.89972437,-0.585828661 10.242739,1.75748598 C12.5857537,4.10050063 12.5857537,7.89972437 10.242739,10.242739 C7.89972437,12.5857537 4.10050063,12.5857537 1.75748598,10.242739 Z" id="Fill-109-Copy" fill="#FEFEFE"></path>
                                <path d="M47.757486,10.242739 C45.4141713,7.89972437 45.4141713,4.10050063 47.757486,1.75748598 C50.1005006,-0.585828661 53.8997244,-0.585828661 56.242739,1.75748598 C58.5857537,4.10050063 58.5857537,7.89972437 56.242739,10.242739 C53.8997244,12.5857537 50.1005006,12.5857537 47.757486,10.242739 Z" id="Fill-109-Copy-3" fill="#FEFEFE"></path>
                                <path d="M1.75748598,56.242739 C-0.585828661,53.8997244 -0.585828661,50.1005006 1.75748598,47.757486 C4.10050063,45.4141713 7.89972437,45.4141713 10.242739,47.757486 C12.5857537,50.1005006 12.5857537,53.8997244 10.242739,56.242739 C7.89972437,58.5857537 4.10050063,58.5857537 1.75748598,56.242739 Z" id="Fill-109-Copy-2" fill="#FEFEFE"></path>
                                <path d="M47.757486,56.242739 C45.4141713,53.8997244 45.4141713,50.1005006 47.757486,47.757486 C50.1005006,45.4141713 53.8997244,45.4141713 56.242739,47.757486 C58.5857537,50.1005006 58.5857537,53.8997244 56.242739,56.242739 C53.8997244,58.5857537 50.1005006,58.5857537 47.757486,56.242739 Z" id="Fill-109-Copy-4" fill="#FEFEFE"></path>
                                <path d="M8.12135303,8.12135303 C6.94982375,9.29288232 5.05017625,9.29288232 3.87864697,8.12135303 C2.70711768,6.94982375 2.70711768,5.05017625 3.87864697,3.87864697 C5.05017625,2.70711768 6.94982375,2.70711768 8.12135303,3.87864697 C9.29288232,5.05017625 9.29288232,6.94982375 8.12135303,8.12135303" id="Fill-110-Copy" fill="#ED2E23"></path>
                                <path d="M54.121353,8.12135303 C52.9498237,9.29288232 51.0501763,9.29288232 49.878647,8.12135303 C48.7071177,6.94982375 48.7071177,5.05017625 49.878647,3.87864697 C51.0501763,2.70711768 52.9498237,2.70711768 54.121353,3.87864697 C55.2928823,5.05017625 55.2928823,6.94982375 54.121353,8.12135303" id="Fill-110-Copy-3" fill="#ED2E23"></path>
                                <path d="M8.12135303,54.121353 C6.94982375,55.2928823 5.05017625,55.2928823 3.87864697,54.121353 C2.70711768,52.9498237 2.70711768,51.0501763 3.87864697,49.878647 C5.05017625,48.7071177 6.94982375,48.7071177 8.12135303,49.878647 C9.29288232,51.0501763 9.29288232,52.9498237 8.12135303,54.121353" id="Fill-110-Copy-2" fill="#ED2E23"></path>
                                <path d="M54.121353,54.121353 C52.9498237,55.2928823 51.0501763,55.2928823 49.878647,54.121353 C48.7071177,52.9498237 48.7071177,51.0501763 49.878647,49.878647 C51.0501763,48.7071177 52.9498237,48.7071177 54.121353,49.878647 C55.2928823,51.0501763 55.2928823,52.9498237 54.121353,54.121353" id="Fill-110-Copy-4" fill="#ED2E23"></path>
                            </g>
                        </g>
                        <polygon id="Fill-13" fill="#CDCCCC" points="0 45 58 45 58 39 0 39"></polygon>
                        <path d="M16,42 C16,39.2435714 18.2435714,37 21,37 C23.7564286,37 26,39.2435714 26,42 C26,44.7564286 23.7564286,47 21,47 C18.2435714,47 16,44.7564286 16,42 Z" id="Fill-15" stroke="#FEBC2A" stroke-width="4" fill="#3E85C6"></path>
                        <polygon id="Fill-13" fill="#CDCCCC" points="0 27 58 27 58 21 0 21"></polygon>
                        <path d="M38,24 C38,21.2435714 40.2435714,19 43,19 C45.7564286,19 48,21.2435714 48,24 C48,26.7564286 45.7564286,29 43,29 C40.2435714,29 38,26.7564286 38,24 Z" id="Fill-15" stroke="#FEBC2A" stroke-width="4" fill="#3E85C6"></path>
                        <polygon id="Fill-13" fill="#CDCCCC" points="0 9 58 9 58 3 0 3"></polygon>
                        <path d="M10,6 C10,3.24357143 12.2435714,1 15,1 C17.7564286,1 20,3.24357143 20,6 C20,8.75642857 17.7564286,11 15,11 C12.2435714,11 10,8.75642857 10,6 Z" id="Fill-15" stroke="#FEBC2A" stroke-width="4" fill="#3E85C6"></path>
                        <g id="Group-7" transform="translate(111.000000, 84.000000)">
                            <path d="M5,28 L5,7" id="Stroke-76" stroke="#ED2E23" stroke-width="4"></path>
                            <path d="M9,4 C9,6.2088 7.2088,8 5,8 C2.7912,8 1,6.2088 1,4 C1,1.7912 2.7912,0 5,0 C7.2088,0 9,1.7912 9,4" id="Fill-77" fill="#ED2E23"></path>
                            <path d="M4.92857143,33.1428571 C2.44778571,33.1428571 0.428571429,31.1236429 0.428571429,28.6428571 C0.428571429,26.1620714 2.44778571,24.1428571 4.92857143,24.1428571 C7.40935714,24.1428571 9.42857143,26.1620714 9.42857143,28.6428571 C9.42857143,31.1236429 7.40935714,33.1428571 4.92857143,33.1428571" id="Fill-78" stroke="#FEBC2A" stroke-width="4" fill="#173862"></path>
                        </g>
                        <g id="Group-7-Copy" transform="translate(71.000000, 84.000000)">
                            <path d="M5,28 L5,7" id="Stroke-76" stroke="#ED2E23" stroke-width="4"></path>
                            <path d="M9,4 C9,6.2088 7.2088,8 5,8 C2.7912,8 1,6.2088 1,4 C1,1.7912 2.7912,0 5,0 C7.2088,0 9,1.7912 9,4" id="Fill-77" fill="#ED2E23"></path>
                            <path d="M4.92857143,33.1428571 C2.44778571,33.1428571 0.428571429,31.1236429 0.428571429,28.6428571 C0.428571429,26.1620714 2.44778571,24.1428571 4.92857143,24.1428571 C7.40935714,24.1428571 9.42857143,26.1620714 9.42857143,28.6428571 C9.42857143,31.1236429 7.40935714,33.1428571 4.92857143,33.1428571" id="Fill-78" stroke="#FEBC2A" stroke-width="4" fill="#173862"></path>
                        </g>
                        <g id="Group-7-Copy-2" transform="translate(91.000000, 84.000000)">
                            <path d="M5,28 L5,7" id="Stroke-76" stroke="#ED2E23" stroke-width="4"></path>
                            <path d="M9,4 C9,6.2088 7.2088,8 5,8 C2.7912,8 1,6.2088 1,4 C1,1.7912 2.7912,0 5,0 C7.2088,0 9,1.7912 9,4" id="Fill-77" fill="#ED2E23"></path>
                            <path d="M4.92857143,33.1428571 C2.44778571,33.1428571 0.428571429,31.1236429 0.428571429,28.6428571 C0.428571429,26.1620714 2.44778571,24.1428571 4.92857143,24.1428571 C7.40935714,24.1428571 9.42857143,26.1620714 9.42857143,28.6428571 C9.42857143,31.1236429 7.40935714,33.1428571 4.92857143,33.1428571" id="Fill-78" stroke="#FEBC2A" stroke-width="4" fill="#173862"></path>
                        </g>
                        <rect id="Rectangle" fill="#3E85C6" x="70" y="62" width="50" height="12"></rect>
                        <g id="Group-6" transform="translate(70.000000, 0.000000)">
                            <path d="M47.0588235,50 L2.94117647,50 C1.32352941,50 0,48.6764706 0,47.0588235 L0,2.94117647 C0,1.32352941 1.32352941,0 2.94117647,0 L47.0588235,0 C48.6764706,0 50,1.32352941 50,2.94117647 L50,47.0588235 C50,48.6764706 48.6764706,50 47.0588235,50" id="Fill-43" fill="#EE2F24"></path>
                            <path d="M15,10 C15,12.7615 12.7615,15 10,15 C7.2385,15 5,12.7615 5,10 C5,7.2385 7.2385,5 10,5 C12.7615,5 15,7.2385 15,10" id="Fill-45" fill="#FDBB29"></path>
                            <path d="M15,40 C15,42.7615 12.7615,45 10,45 C7.2385,45 5,42.7615 5,40 C5,37.2385 7.2385,35 10,35 C12.7615,35 15,37.2385 15,40" id="Fill-45-Copy" fill="#FDBB29"></path>
                            <path d="M15,25 C15,27.7615 12.7615,30 10,30 C7.2385,30 5,27.7615 5,25 C5,22.2385 7.2385,20 10,20 C12.7615,20 15,22.2385 15,25" id="Fill-45-Copy-2" fill="#FDBB29"></path>
                            <path d="M25,5 C22.2385,5 20,7.2385 20,10 C20,12.7615 22.2385,15 25,15 C27.761,15 30,12.7615 30,10 C30,7.2385 27.761,5 25,5 M25,7 C26.6545,7 28,8.346 28,10 C28,11.654 26.6545,13 25,13 C23.3455,13 22,11.654 22,10 C22,8.346 23.3455,7 25,7" id="Fill-47" fill="#FDBB29"></path>
                            <path d="M25,20 C22.2385,20 20,22.2385 20,25 C20,27.7615 22.2385,30 25,30 C27.761,30 30,27.7615 30,25 C30,22.2385 27.761,20 25,20 M25,22 C26.6545,22 28,23.346 28,25 C28,26.654 26.6545,28 25,28 C23.3455,28 22,26.654 22,25 C22,23.346 23.3455,22 25,22" id="Fill-47-Copy-2" fill="#FDBB29"></path>
                            <path d="M25,35 C22.2385,35 20,37.2385 20,40 C20,42.7615 22.2385,45 25,45 C27.761,45 30,42.7615 30,40 C30,37.2385 27.761,35 25,35 M25,37 C26.6545,37 28,38.346 28,40 C28,41.654 26.6545,43 25,43 C23.3455,43 22,41.654 22,40 C22,38.346 23.3455,37 25,37" id="Fill-47-Copy-4" fill="#FDBB29"></path>
                            <path d="M40,5 C37.2385,5 35,7.2385 35,10 C35,12.7615 37.2385,15 40,15 C42.761,15 45,12.7615 45,10 C45,7.2385 42.761,5 40,5 M40,7 C41.6545,7 43,8.346 43,10 C43,11.654 41.6545,13 40,13 C38.3455,13 37,11.654 37,10 C37,8.346 38.3455,7 40,7" id="Fill-47-Copy" fill="#FDBB29"></path>
                            <path d="M40,20 C37.2385,20 35,22.2385 35,25 C35,27.7615 37.2385,30 40,30 C42.761,30 45,27.7615 45,25 C45,22.2385 42.761,20 40,20 M40,22 C41.6545,22 43,23.346 43,25 C43,26.654 41.6545,28 40,28 C38.3455,28 37,26.654 37,25 C37,23.346 38.3455,22 40,22" id="Fill-47-Copy-3" fill="#FDBB29"></path>
                            <path d="M40,35 C37.2385,35 35,37.2385 35,40 C35,42.7615 37.2385,45 40,45 C42.761,45 45,42.7615 45,40 C45,37.2385 42.761,35 40,35 M40,37 C41.6545,37 43,38.346 43,40 C43,41.654 41.6545,43 40,43 C38.3455,43 37,41.654 37,40 C37,38.346 38.3455,37 40,37" id="Fill-47-Copy-5" fill="#FDBB29"></path>
                        </g>
                    </g>
                </g>
            </g>
        </g>
    </g>
</svg>