<?xml version="1.0" encoding="UTF-8" standalone="no"?>
<svg width="120px" height="121px" viewBox="0 0 120 121" version="1.1" xmlns="http://www.w3.org/2000/svg" xmlns:xlink="http://www.w3.org/1999/xlink">
    <!-- Generator: Sketch 41 (35326) - http://www.bohemiancoding.com/sketch -->
    <title>red panel elements</title>
    <desc>Created with Sketch.</desc>
    <defs></defs>
    <g id="Symbols" stroke="none" stroke-width="1" fill="none" fill-rule="evenodd">
        <g id="Header-Illustration-Desktop" transform="translate(-590.000000, -29.000000)">
            <g id="Panel-180x180---RED">
                <g transform="translate(560.000000, 0.000000)">
                    <g id="red-panel-elements" transform="translate(30.000000, 30.000000)">
                        <g id="Group-2" transform="translate(84.000000, 0.000000)">
                            <path d="M24.283574,0 L10,34.4835379" id="Stroke-79" stroke="#173963" stroke-width="4"></path>
                            <path d="M34.4835379,10 L0,24.283574" id="Stroke-80" stroke="#173963" stroke-width="4"></path>
                            <path d="M10,0 L24.283574,34.4835379" id="Stroke-81" stroke="#173963" stroke-width="4"></path>
                            <path d="M0,10 L34.4835379,24.283574" id="Stroke-82" stroke="#173963" stroke-width="4"></path>
                            <path d="M4,17 C4,9.82028571 9.82028571,4 17,4 C24.1797143,4 30,9.82028571 30,17 C30,24.1797143 24.1797143,30 17,30 C9.82028571,30 4,24.1797143 4,17 Z" id="Fill-83" fill="#CDCCCC"></path>
                        </g>
                        <path d="M102,108 C102,103.588667 105.588667,100 110,100 C114.411333,100 118,103.588667 118,108 C118,112.411333 114.411333,116 110,116 C105.588667,116 102,112.411333 102,108 Z" id="Fill-89" stroke="#FEBC2A" stroke-width="4" fill="#3E85C6"></path>
                        <path d="M2,108 C2,103.588667 5.58866667,100 10,100 C14.4113333,100 18,103.588667 18,108 C18,112.411333 14.4113333,116 10,116 C5.58866667,116 2,112.411333 2,108 Z" id="Fill-89-Copy" stroke="#FEBC2A" stroke-width="4" fill="#3E85C6"></path>
                        <g id="Group-3" transform="translate(60.000000, 108.500000) rotate(-360.000000) translate(-60.000000, -108.500000) translate(31.000000, 99.000000)" stroke-width="4">
                            <path d="M11,3.051 C19.6651465,3.051 11.0450476,19 20.0035037,19 C28.9619598,19 20.4119348,3.103 28.9048996,3.103 C37.3978644,3.103 28.9069017,19 38.0015016,19 C47.0961014,19 38.4109338,3 47,3" id="Stroke-68" stroke="#FEBC2A"></path>
                            <polygon id="Fill-93" stroke="#FFFFFF" fill="#3E85C6" points="0 19 9 19 9 0 0 0"></polygon>
                            <polygon id="Fill-95" stroke="#FFFFFF" fill="#3E85C6" points="49 19 58 19 58 0 49 0"></polygon>
                        </g>
                        <g id="plug" transform="translate(10.500000, 66.000000) rotate(-360.000000) translate(-10.500000, -66.000000) translate(5.000000, 53.000000)">
                            <path d="M5.5012,16.3159 C8.12445193,16.3159 10.2506,18.4420481 10.2506,21.0653 C10.2506,23.6885519 8.12445193,25.8147 5.5012,25.8147 C2.87794807,25.8147 0.7518,23.6885519 0.7518,21.0653 C0.7518,18.4420481 2.87794807,16.3159 5.5012,16.3159 Z" id="Fill-100" stroke="#FFFFFF" stroke-width="4" fill="#FEBC2A"></path>
                            <polygon id="Fill-102" fill="#173963" points="3.68371802 10.6799007 7.68371802 10.6799007 7.68371802 0.679900652 3.68371802 0.679900652"></polygon>
                        </g>
                        <g id="plug-copy" transform="translate(110.500000, 66.000000) rotate(-360.000000) translate(-110.500000, -66.000000) translate(105.000000, 53.000000)">
                            <path d="M5.5012,16.3159 C8.12445193,16.3159 10.2506,18.4420481 10.2506,21.0653 C10.2506,23.6885519 8.12445193,25.8147 5.5012,25.8147 C2.87794807,25.8147 0.7518,23.6885519 0.7518,21.0653 C0.7518,18.4420481 2.87794807,16.3159 5.5012,16.3159 Z" id="Fill-100" stroke="#FFFFFF" stroke-width="4" fill="#FEBC2A"></path>
                            <polygon id="Fill-102" fill="#173963" points="3.68371802 10.6799007 7.68371802 10.6799007 7.68371802 0.679900652 3.68371802 0.679900652"></polygon>
                        </g>
                        <g id="small-panel">
                            <polygon id="Fill-19" fill="#CDCCCC" points="0 35 63 35 63 0 0 0"></polygon>
                            <path d="M14,10.5 C14,12.433 12.433,14 10.5,14 C8.567,14 7,12.433 7,10.5 C7,8.567 8.567,7 10.5,7 C12.433,7 14,8.567 14,10.5" id="Fill-20" fill="#3E85C6"></path>
                            <path d="M28,10.5 C28,12.433 26.433,14 24.5,14 C22.567,14 21,12.433 21,10.5 C21,8.567 22.567,7 24.5,7 C26.433,7 28,8.567 28,10.5" id="Fill-21" fill="#3E85C6"></path>
                            <path d="M38.5,14 C36.567,14 35,12.433 35,10.5 C35,8.567 36.567,7 38.5,7 C40.433,7 42,8.567 42,10.5 C42,12.433 40.433,14 38.5,14 Z" id="Fill-22" fill="#3E85C6"></path>
                            <path d="M56,10.5 C56,12.433 54.433,14 52.5,14 C50.567,14 49,12.433 49,10.5 C49,8.567 50.567,7 52.5,7 C54.433,7 56,8.567 56,10.5" id="Fill-23" fill="#3E85C6"></path>
                            <path d="M14,24.5 C14,26.433 12.433,28 10.5,28 C8.567,28 7,26.433 7,24.5 C7,22.567 8.567,21 10.5,21 C12.433,21 14,22.567 14,24.5" id="Fill-28" fill="#3E85C6"></path>
                            <path d="M28,24.5 C28,26.433 26.433,28 24.5,28 C22.567,28 21,26.433 21,24.5 C21,22.567 22.567,21 24.5,21 C26.433,21 28,22.567 28,24.5" id="Fill-29" fill="#3E85C6"></path>
                            <path d="M42,24.5 C42,26.433 40.433,28 38.5,28 C36.567,28 35,26.433 35,24.5 C35,22.567 36.567,21 38.5,21 C40.433,21 42,22.567 42,24.5" id="Fill-30" fill="#3E85C6"></path>
                            <path d="M56,24.5 C56,26.433 54.433,28 52.5,28 C50.567,28 49,26.433 49,24.5 C49,22.567 50.567,21 52.5,21 C54.433,21 56,22.567 56,24.5" id="Fill-31" fill="#3E85C6"></path>
                        </g>
                        <g id="Group" transform="translate(30.000000, 51.000000)">
                            <path d="M5,32 C2.23846154,32 0,29.7615385 0,27 C0,24.2384615 2.23846154,22 5,22 C7.76153846,22 10,24.2384615 10,27 C10,29.7615385 7.76153846,32 5,32 Z" id="Fill-41" fill="#FEBC2A"></path>
                            <path d="M55,32 C52.2384615,32 50,29.7615385 50,27 C50,24.2384615 52.2384615,22 55,22 C57.7615385,22 60,24.2384615 60,27 C60,29.7615385 57.7615385,32 55,32 Z" id="Fill-41-Copy" fill="#FEBC2A"></path>
                            <path d="M55,10 C52.2384615,10 50,7.76153846 50,5 C50,2.23846154 52.2384615,0 55,0 C57.7615385,0 60,2.23846154 60,5 C60,7.76153846 57.7615385,10 55,10 Z" id="Fill-42-Copy" fill="#FEBC2A"></path>
                            <path d="M5,10 C2.23846154,10 0,7.76153846 0,5 C0,2.23846154 2.23846154,0 5,0 C7.76153846,0 10,2.23846154 10,5 C10,7.76153846 7.76153846,10 5,10 Z" id="Fill-42" fill="#FEBC2A"></path>
                            <path d="M10,16 L50,16" id="Stroke-50" stroke="#173963" stroke-width="4"></path>
                            <path d="M24,16 C24,12.69175 26.69175,10 30,10 C33.30825,10 36,12.69175 36,16 C36,19.30825 33.30825,22 30,22 C26.69175,22 24,19.30825 24,16 Z" id="Fill-56" stroke="#173963" stroke-width="4" fill="#3E85C6"></path>
                        </g>
                    </g>
                </g>
            </g>
        </g>
    </g>
</svg>