<?xml version="1.0" encoding="utf-8"?>
<!-- Generator: Adobe Illustrator 21.0.1, SVG Export Plug-In . SVG Version: 6.00 Build 0)  -->
<svg version="1.1" id="Layer_1" xmlns="http://www.w3.org/2000/svg" xmlns:xlink="http://www.w3.org/1999/xlink" x="0px" y="0px"
	 viewBox="0 0 140 76" style="enable-background:new 0 0 140 76;" xml:space="preserve">
<style type="text/css">
	.st0{fill:#221F20;}
	.st1{fill:#008943;}
	.st2{enable-background:new    ;}
</style>
<title>Medium Logo</title>
<desc>Created with Sketch.</desc>
<g id="Tablet">
	<g id="iPad-Landscape-Copy" transform="translate(-30.000000, -30.000000)">
		<g id="Header---Tablet-and-small-notebooks-landscape">
			<g id="Header-Illustration-Desktop">
				<g id="Panel-180x180---GREY">
					<g id="Medium-Logo" transform="translate(30.000000, 30.000000)">
						<path id="Fill-2" class="st0" d="M134,76H6c-3.3,0-6-2.7-6-6.1V6.1C0,2.7,2.7,0,6,0h128c3.3,0,6,2.7,6,6.1v63.9
							C140,73.3,137.3,76,134,76z"/>
						<polygon id="Fill-4" class="st1" points="119,17.9 130,17.9 130,10.9 119,10.9 						"/>
						<polygon id="Fill-6" class="st1" points="119,27.9 130,27.9 130,23.9 119,23.9 						"/>
						<g class="st2">
							<path class="st1" d="M25.7,37.8V47h-2.8V24.8h5.4c5.3,0,7.9,2.1,7.9,6.3c0,2.9-1.5,4.9-4.4,5.9l6,9.9h-3.3l-5.3-9.2H25.7z
								 M25.7,35.5h2.5c1.7,0,3-0.3,3.8-1c0.8-0.7,1.2-1.7,1.2-3.2c0-1.4-0.4-2.4-1.2-3.1c-0.8-0.6-2.1-0.9-3.9-0.9h-2.4V35.5z"/>
							<path class="st1" d="M49.3,47h-2.8V27.3h-6.3v-2.5h15.5v2.5h-6.3V47z"/>
							<path class="st1" d="M67.4,35.3h6.4v10.9c-2,0.8-4.1,1.1-6.4,1.1c-2.6,0-4.7-1-6.2-3c-1.5-2-2.2-4.8-2.2-8.4
								c0-3.5,0.8-6.3,2.5-8.3c1.6-2,3.9-3,6.8-3c1.9,0,3.7,0.4,5.2,1.3l-1.1,2.5c-1.5-0.8-2.9-1.3-4.2-1.3c-1.9,0-3.4,0.8-4.5,2.4
								c-1.1,1.6-1.6,3.8-1.6,6.6c0,5.9,2,8.9,6,8.9c1,0,2-0.1,3.1-0.4v-6.6h-3.6V35.3z"/>
							<path class="st1" d="M94.7,51.9H75.6v-2.1h19.1V51.9z"/>
						</g>
					</g>
				</g>
			</g>
		</g>
	</g>
</g>
</svg>
