<?xml version="1.0" encoding="utf-8"?>
<!-- Generator: Adobe Illustrator 21.0.1, SVG Export Plug-In . SVG Version: 6.00 Build 0)  -->
<svg version="1.1" id="Layer_1" xmlns="http://www.w3.org/2000/svg" xmlns:xlink="http://www.w3.org/1999/xlink" x="0px" y="0px"
	 viewBox="0 0 230 120" style="enable-background:new 0 0 230 120;" xml:space="preserve">
<style type="text/css">
	.st0{fill:#231F20;}
	.st1{enable-background:new    ;}
	.st2{fill:#008A43;}
</style>
<title>LOGO - L</title>
<desc>Created with Sketch.</desc>
<g id="Symbols">
	<g id="Header-Illustration-Desktop" transform="translate(-30.000000, -30.000000)">
		<g id="Panel-180x180---GREY">
			<g>
				<g id="LOGO---L" transform="translate(30.000000, 30.000000)">
					<g id="Logo-L">
						<path id="Fill-26" class="st0" d="M4.7,120c-2.6,0-4.7-2.2-4.7-4.8V4.8C0,2.2,2.1,0,4.7,0h220.6c2.6,0,4.7,2.2,4.7,4.8v110.4
							c0,2.6-2.1,4.8-4.7,4.8H4.7z"/>
						<g class="st1">
							<path class="st2" d="M25.6,32.7V41H23V21h4.9c4.7,0,7.1,1.9,7.1,5.7c0,2.6-1.3,4.4-4,5.4l5.4,9h-3l-4.8-8.3H25.6z M25.6,30.6
								h2.2c1.6,0,2.7-0.3,3.4-0.9s1.1-1.6,1.1-2.9c0-1.3-0.4-2.2-1.1-2.8c-0.7-0.6-1.9-0.8-3.5-0.8h-2.2V30.6z"/>
							<path class="st2" d="M49.5,41L49,38.9h-0.1c-0.7,0.9-1.4,1.5-2.2,1.8s-1.7,0.5-2.9,0.5c-1.5,0-2.7-0.4-3.5-1.2
								c-0.8-0.8-1.3-1.9-1.3-3.3c0-3,2.3-4.6,7-4.8l2.8-0.1V31c0-2.2-1.1-3.2-3.3-3.2c-1.3,0-2.8,0.4-4.5,1.1L40.2,27
								c1.8-0.9,3.5-1.3,5.2-1.3c2.1,0,3.6,0.4,4.5,1.2c0.9,0.8,1.4,2.1,1.4,3.8V41H49.5z M48.9,33.6l-2.2,0.1
								c-1.8,0.1-3.1,0.4-3.8,0.8c-0.7,0.5-1.1,1.2-1.1,2.2c0,1.6,0.9,2.4,2.7,2.4c1.3,0,2.4-0.4,3.2-1.1c0.8-0.7,1.2-1.8,1.2-3.1
								V33.6z"/>
							<path class="st2" d="M66.2,41v-9.7c0-2.4-1.1-3.6-3.3-3.6c-2.8,0-4.2,1.8-4.2,5.4V41h-2.5V26h2l0.4,2h0.1
								c0.9-1.5,2.5-2.3,4.6-2.3c3.5,0,5.3,1.8,5.3,5.5V41H66.2z"/>
							<path class="st2" d="M83.2,39h-0.1c-1,1.5-2.5,2.3-4.4,2.3c-1.8,0-3.3-0.7-4.3-2c-1-1.4-1.6-3.3-1.6-5.7
								c0-2.5,0.5-4.4,1.6-5.7c1-1.4,2.5-2.1,4.3-2.1c1.9,0,3.3,0.7,4.4,2.2h0.2c-0.1-1.2-0.2-1.9-0.2-2.2v-6h2.5V41h-2L83.2,39z
								 M83.1,34.1v-0.6c0-2.1-0.3-3.5-1-4.4c-0.6-0.9-1.6-1.3-3-1.3c-2.5,0-3.7,1.9-3.7,5.8c0,3.8,1.2,5.7,3.7,5.7
								c1.4,0,2.4-0.4,3-1.2C82.7,37.2,83,35.9,83.1,34.1z"/>
							<path class="st2" d="M96.1,41.2c-2,0-3.6-0.7-4.9-2.1s-1.9-3.3-1.9-5.7c0-2.4,0.6-4.3,1.9-5.7c1.2-1.4,2.9-2.1,5-2.1
								c2,0,3.6,0.7,4.9,2.1c1.3,1.4,1.9,3.3,1.9,5.6c0,2.4-0.6,4.3-1.9,5.7C99.8,40.5,98.1,41.2,96.1,41.2z M96.1,39.2
								c2.8,0,4.2-1.9,4.2-5.7c0-3.8-1.4-5.7-4.3-5.7c-2.8,0-4.2,1.9-4.2,5.7C91.9,37.3,93.3,39.2,96.1,39.2z"/>
							<path class="st2" d="M117.9,41v-9.7c0-1.3-0.1-2.3-0.4-2.8s-0.6-0.8-1.2-0.8c-0.8,0-1.4,0.4-1.7,1.1c-0.4,0.8-0.5,2-0.5,3.8
								V41h-2.2v-9.7c0-2.4-0.6-3.6-1.7-3.6c-0.8,0-1.3,0.4-1.6,1.1S108,31,108,33.2V41h-2.2V26h1.7l0.4,2h0.1
								c0.6-1.5,1.5-2.3,2.7-2.3c1.5,0,2.5,0.8,2.9,2.5h0.1c0.7-1.7,1.7-2.5,3-2.5c1.2,0,2,0.4,2.5,1.3c0.5,0.8,0.8,2.2,0.8,4.2V41
								H117.9z"/>
						</g>
						<g class="st1">
							<path class="st2" d="M30.2,70h-2.6V52.2h-5.7V50h14v2.2h-5.7V70z"/>
							<path class="st2" d="M51.8,55.3l-0.7,2.3C50,57.2,49,57,48,57c-1.5,0-2.6,0.4-3.4,1.3s-1.2,2.1-1.2,3.7V70h-2.5V55h2l0.3,2.7
								h0.1c0.7-1.1,1.4-1.9,2.2-2.3s1.8-0.7,2.9-0.7C49.6,54.7,50.7,54.9,51.8,55.3z"/>
							<path class="st2" d="M61.5,56.9l-3.7-0.3V55H64V68l4.8,0.3V70h-12v-1.7l4.7-0.3V56.9z M62.8,48.8c1,0,1.4,0.5,1.4,1.6
								c0,0.5-0.1,0.9-0.4,1.2s-0.6,0.4-1,0.4c-1,0-1.5-0.5-1.5-1.6C61.3,49.3,61.8,48.8,62.8,48.8z"/>
							<path class="st2" d="M77.7,70L72,55h2.6l3.3,8.9c0.8,2.1,1.2,3.6,1.4,4.4h0.1c0.1-0.4,0.5-1.9,1.4-4.4L84,55h2.6l-5.7,15
								H77.7z"/>
							<path class="st2" d="M95.1,56.9l-3.7-0.3V55h6.2V68l4.8,0.3V70h-12v-1.7l4.7-0.3V56.9z M96.4,48.8c1,0,1.4,0.5,1.4,1.6
								c0,0.5-0.1,0.9-0.4,1.2s-0.6,0.4-1,0.4c-1,0-1.5-0.5-1.5-1.6C94.9,49.3,95.4,48.8,96.4,48.8z"/>
							<path class="st2" d="M116.8,70l-0.5-2.1h-0.1c-0.7,0.9-1.4,1.5-2.2,1.8s-1.7,0.5-2.9,0.5c-1.5,0-2.7-0.4-3.5-1.2
								c-0.8-0.8-1.3-1.9-1.3-3.3c0-3,2.3-4.6,7-4.8l2.8-0.1V60c0-2.2-1.1-3.2-3.3-3.2c-1.3,0-2.8,0.4-4.5,1.1l-0.9-1.9
								c1.8-0.9,3.5-1.3,5.2-1.3c2.1,0,3.6,0.4,4.5,1.2s1.4,2.1,1.4,3.8V70H116.8z M116.1,62.6l-2.2,0.1c-1.8,0.1-3.1,0.4-3.8,0.8
								c-0.7,0.5-1.1,1.2-1.1,2.2c0,1.6,0.9,2.4,2.7,2.4c1.3,0,2.4-0.4,3.2-1.1c0.8-0.7,1.2-1.8,1.2-3.1V62.6z"/>
						</g>
						<g class="st1">
							<path class="st2" d="M29.7,88.4h5.8v9.8c-1.8,0.7-3.7,1-5.7,1c-2.4,0-4.3-0.9-5.6-2.7c-1.3-1.8-2-4.3-2-7.6
								c0-3.2,0.7-5.7,2.2-7.5s3.5-2.7,6.1-2.7c1.8,0,3.3,0.4,4.7,1.2l-1,2.2c-1.3-0.8-2.6-1.1-3.8-1.1c-1.8,0-3.1,0.7-4.1,2.1
								c-1,1.4-1.5,3.4-1.5,5.9c0,5.4,1.8,8,5.4,8c0.9,0,1.8-0.1,2.8-0.4v-6h-3.2V88.4z"/>
							<path class="st2" d="M52.3,92H41.7c0.1,3.4,1.6,5.1,4.7,5.1c1.8,0,3.5-0.3,5.1-1v2.2c-1.5,0.7-3.2,1-5,1c-2.2,0-4-0.7-5.4-2
								s-2-3.2-2-5.6c0-2.4,0.6-4.3,1.9-5.8c1.2-1.4,2.9-2.1,5-2.1c1.9,0,3.5,0.6,4.6,1.8c1.2,1.2,1.7,2.8,1.7,4.9V92z M41.8,89.9
								h7.8c0-2.8-1.2-4.2-3.7-4.2C43.4,85.8,42,87.2,41.8,89.9z"/>
							<path class="st2" d="M66.2,99v-9.7c0-2.4-1.1-3.6-3.3-3.6c-2.8,0-4.2,1.8-4.2,5.4V99h-2.5V84h2l0.4,2h0.1
								c0.9-1.5,2.5-2.3,4.6-2.3c3.5,0,5.3,1.8,5.3,5.5V99H66.2z"/>
							<path class="st2" d="M85.9,92H75.3c0.1,3.4,1.6,5.1,4.7,5.1c1.8,0,3.5-0.3,5.1-1v2.2c-1.5,0.7-3.2,1-5,1c-2.2,0-4-0.7-5.4-2
								s-2-3.2-2-5.6c0-2.4,0.6-4.3,1.9-5.8c1.2-1.4,2.9-2.1,5-2.1c1.9,0,3.5,0.6,4.6,1.8c1.2,1.2,1.7,2.8,1.7,4.9V92z M75.4,89.9
								h7.8c0-2.8-1.2-4.2-3.7-4.2C77,85.8,75.6,87.2,75.4,89.9z"/>
							<path class="st2" d="M102.2,84.3l-0.7,2.3c-1.1-0.4-2.1-0.6-3.1-0.6c-1.5,0-2.6,0.4-3.4,1.3s-1.2,2.1-1.2,3.7V99h-2.5V84h2
								l0.3,2.7h0.1c0.7-1.1,1.4-1.9,2.2-2.3s1.8-0.7,2.9-0.7C100,83.7,101.1,83.9,102.2,84.3z"/>
							<path class="st2" d="M116.8,99l-0.5-2.1h-0.1c-0.7,0.9-1.4,1.5-2.2,1.8s-1.7,0.5-2.9,0.5c-1.5,0-2.7-0.4-3.5-1.2
								c-0.8-0.8-1.3-1.9-1.3-3.3c0-3,2.3-4.6,7-4.8l2.8-0.1V89c0-2.2-1.1-3.2-3.3-3.2c-1.3,0-2.8,0.4-4.5,1.1l-0.9-1.9
								c1.8-0.9,3.5-1.3,5.2-1.3c2.1,0,3.6,0.4,4.5,1.2s1.4,2.1,1.4,3.8V99H116.8z M116.1,91.7l-2.2,0.1c-1.8,0.1-3.1,0.4-3.8,0.8
								c-0.7,0.5-1.1,1.2-1.1,2.2c0,1.6,0.9,2.4,2.7,2.4c1.3,0,2.4-0.4,3.2-1.1c0.8-0.7,1.2-1.8,1.2-3.1V91.7z"/>
							<path class="st2" d="M135.3,96.9v1.9c-1.2,0.3-2.3,0.4-3.4,0.4c-3.3,0-4.9-1.6-4.9-4.7v-8.7h-3.7v-1.3l3.7-0.7l1.1-3.9h1.4v4
								h6v1.9h-6v8.7c0,1.8,0.9,2.7,2.6,2.7C132.8,97.2,133.9,97.1,135.3,96.9z"/>
							<path class="st2" d="M146.5,99.3c-2,0-3.6-0.7-4.9-2.1s-1.9-3.3-1.9-5.7c0-2.4,0.6-4.3,1.9-5.7s2.9-2.1,5-2.1
								c2,0,3.6,0.7,4.9,2.1c1.3,1.4,1.9,3.3,1.9,5.6c0,2.4-0.6,4.3-1.9,5.7C150.2,98.6,148.5,99.3,146.5,99.3z M146.5,97.2
								c2.8,0,4.2-1.9,4.2-5.7c0-3.8-1.4-5.7-4.3-5.7c-2.8,0-4.2,1.9-4.2,5.7C142.3,95.3,143.7,97.2,146.5,97.2z"/>
							<path class="st2" d="M169.4,84.3l-0.7,2.3c-1.1-0.4-2.1-0.6-3.1-0.6c-1.5,0-2.6,0.4-3.4,1.3s-1.2,2.1-1.2,3.7V99h-2.5V84h2
								l0.3,2.7h0.1c0.7-1.1,1.4-1.9,2.2-2.3s1.8-0.7,2.9-0.7C167.2,83.7,168.3,83.9,169.4,84.3z"/>
							<path class="st2" d="M188.7,103.4h-17.2v-1.9h17.2V103.4z"/>
						</g>
						<polygon id="Fill-29" class="st2" points="196.5,27.3 207.5,27.3 207.5,20.3 196.5,20.3 						"/>
						<polygon id="Fill-31" class="st2" points="196.5,37.3 207.5,37.3 207.5,33.3 196.5,33.3 						"/>
					</g>
				</g>
			</g>
		</g>
	</g>
</g>
</svg>
