<?xml version="1.0" encoding="UTF-8" standalone="no"?>
<svg width="65px" height="55px" viewBox="0 0 65 55" version="1.1" xmlns="http://www.w3.org/2000/svg" xmlns:xlink="http://www.w3.org/1999/xlink">
    <!-- Generator: Sketch 41.2 (35397) - http://www.bohemiancoding.com/sketch -->
    <title>Input Levels</title>
    <desc>Created with Sketch.</desc>
    <defs></defs>
    <g id="Tablet" stroke="none" stroke-width="1" fill="none" fill-rule="evenodd">
        <g id="iPad-Landscape-Copy" transform="translate(-265.000000, -41.000000)">
            <g id="Header---Tablet-and-small-notebooks-landscape">
                <g id="Header-Illustration-Desktop">
                    <g id="Panel-180x180---GREY">
                        <g id="Input-Levels" transform="translate(265.000000, 41.000000)">
                            <polygon id="Fill-8" fill="#ED2E23" points="0 9 65 9 65 5 0 5"></polygon>
                            <path d="M25.9999,12 C23.2429,12 20.9999,9.757 20.9999,7 C20.9999,4.243 23.2429,2 25.9999,2 C28.7569,2 30.9999,4.243 30.9999,7 C30.9999,9.757 28.7569,12 25.9999,12" id="Fill-10" fill="#FDBB29"></path>
                            <path d="M25.9999,0 C22.1339,0 18.9999,3.134 18.9999,7 C18.9999,10.866 22.1339,14 25.9999,14 C29.8659,14 32.9999,10.866 32.9999,7 C32.9999,3.134 29.8659,0 25.9999,0 M25.9999,4 C27.6539,4 28.9999,5.346 28.9999,7 C28.9999,8.654 27.6539,10 25.9999,10 C24.3459,10 22.9999,8.654 22.9999,7 C22.9999,5.346 24.3459,4 25.9999,4" id="Fill-11" fill="#173862"></path>
                            <polygon id="Fill-12" fill="#ED2E23" points="0 49.855 65 49.855 65 45.855 0 45.855"></polygon>
                            <path d="M25.9999,52.8545 C23.2429,52.8545 20.9999,50.6115 20.9999,47.8545 C20.9999,45.0975 23.2429,42.8545 25.9999,42.8545 C28.7569,42.8545 30.9999,45.0975 30.9999,47.8545 C30.9999,50.6115 28.7569,52.8545 25.9999,52.8545" id="Fill-13" fill="#FDBB29"></path>
                            <path d="M25.9999,40.8547 C22.1339,40.8547 18.9999,43.9887 18.9999,47.8547 C18.9999,51.7207 22.1339,54.8547 25.9999,54.8547 C29.8659,54.8547 32.9999,51.7207 32.9999,47.8547 C32.9999,43.9887 29.8659,40.8547 25.9999,40.8547 M25.9999,44.8547 C27.6539,44.8547 28.9999,46.2007 28.9999,47.8547 C28.9999,49.5087 27.6539,50.8547 25.9999,50.8547 C24.3459,50.8547 22.9999,49.5087 22.9999,47.8547 C22.9999,46.2007 24.3459,44.8547 25.9999,44.8547" id="Fill-14" fill="#173862"></path>
                            <polygon id="Fill-15" fill="#ED2E23" points="0 29.427 65 29.427 65 25.427 0 25.427"></polygon>
                            <path d="M49.4999,32.4277 C46.7429,32.4277 44.4999,30.1847 44.4999,27.4277 C44.4999,24.6707 46.7429,22.4277 49.4999,22.4277 C52.2569,22.4277 54.4999,24.6707 54.4999,27.4277 C54.4999,30.1847 52.2569,32.4277 49.4999,32.4277" id="Fill-16" fill="#FDBB29"></path>
                            <path d="M49.4999,20.4272 C45.6339,20.4272 42.4999,23.5612 42.4999,27.4272 C42.4999,31.2932 45.6339,34.4272 49.4999,34.4272 C53.3659,34.4272 56.4999,31.2932 56.4999,27.4272 C56.4999,23.5612 53.3659,20.4272 49.4999,20.4272 M49.4999,24.4272 C51.1539,24.4272 52.4999,25.7732 52.4999,27.4272 C52.4999,29.0812 51.1539,30.4272 49.4999,30.4272 C47.8459,30.4272 46.4999,29.0812 46.4999,27.4272 C46.4999,25.7732 47.8459,24.4272 49.4999,24.4272" id="Fill-17" fill="#173862"></path>
                        </g>
                    </g>
                </g>
            </g>
        </g>
    </g>
</svg>