<?xml version="1.0" encoding="UTF-8" standalone="no"?>
<svg width="127px" height="122px" viewBox="0 0 127 122" version="1.1" xmlns="http://www.w3.org/2000/svg" xmlns:xlink="http://www.w3.org/1999/xlink">
    <!-- Generator: Sketch 41 (35326) - http://www.bohemiancoding.com/sketch -->
    <title>Group 15</title>
    <desc>Created with Sketch.</desc>
    <defs></defs>
    <g id="Symbols" stroke="none" stroke-width="1" fill="none" fill-rule="evenodd">
        <g id="Header-Illustration-Desktop" transform="translate(-403.000000, -31.000000)">
            <g id="Panel-180x180---GREY">
                <g>
                    <g id="Group-15" transform="translate(403.000000, 30.000000)">
                        <g id="lights" transform="translate(0.000000, 1.000000)">
                            <path d="M8.1491,4.0126 C8.1491,6.2216 6.3581,8.0126 4.1491,8.0126 C1.9401,8.0126 0.1491,6.2216 0.1491,4.0126 C0.1491,1.8036 1.9401,0.0126 4.1491,0.0126 C6.3581,0.0126 8.1491,1.8036 8.1491,4.0126" id="Fill-36" fill="#3E85C6"></path>
                            <path d="M17.1491,4.0126 C17.1491,5.3936 16.0301,6.5126 14.6491,6.5126 C13.2681,6.5126 12.1491,5.3936 12.1491,4.0126 C12.1491,2.6316 13.2681,1.5126 14.6491,1.5126 C16.0301,1.5126 17.1491,2.6316 17.1491,4.0126" id="Fill-37" fill="#173963"></path>
                            <path d="M8.1491,17.6792 C8.1491,19.8882 6.3581,21.6792 4.1491,21.6792 C1.9401,21.6792 0.1491,19.8882 0.1491,17.6792 C0.1491,15.4702 1.9401,13.6792 4.1491,13.6792 C6.3581,13.6792 8.1491,15.4702 8.1491,17.6792" id="Fill-38" fill="#EE2F24"></path>
                            <path d="M17.1491,17.6792 C17.1491,19.0602 16.0301,20.1792 14.6491,20.1792 C13.2681,20.1792 12.1491,19.0602 12.1491,17.6792 C12.1491,16.2982 13.2681,15.1792 14.6491,15.1792 C16.0301,15.1792 17.1491,16.2982 17.1491,17.6792" id="Fill-39" fill="#FFFFFF"></path>
                            <path d="M8.1491,31.3459 C8.1491,33.5549 6.3581,35.3459 4.1491,35.3459 C1.9401,35.3459 0.1491,33.5549 0.1491,31.3459 C0.1491,29.1369 1.9401,27.3459 4.1491,27.3459 C6.3581,27.3459 8.1491,29.1369 8.1491,31.3459" id="Fill-40" fill="#3E85C6"></path>
                            <path d="M17.1491,31.3459 C17.1491,32.7269 16.0301,33.8459 14.6491,33.8459 C13.2681,33.8459 12.1491,32.7269 12.1491,31.3459 C12.1491,29.9649 13.2681,28.8459 14.6491,28.8459 C16.0301,28.8459 17.1491,29.9649 17.1491,31.3459" id="Fill-41" fill="#173963"></path>
                            <path d="M33.1491,4.0126 C33.1491,6.2216 31.3581,8.0126 29.1491,8.0126 C26.9401,8.0126 25.1491,6.2216 25.1491,4.0126 C25.1491,1.8036 26.9401,0.0126 29.1491,0.0126 C31.3581,0.0126 33.1491,1.8036 33.1491,4.0126" id="Fill-44" fill="#3E85C6"></path>
                            <path d="M42.1491,4.0126 C42.1491,5.3936 41.0301,6.5126 39.6491,6.5126 C38.2681,6.5126 37.1491,5.3936 37.1491,4.0126 C37.1491,2.6316 38.2681,1.5126 39.6491,1.5126 C41.0301,1.5126 42.1491,2.6316 42.1491,4.0126" id="Fill-45" fill="#173963"></path>
                            <path d="M33.1491,17.6792 C33.1491,19.8882 31.3581,21.6792 29.1491,21.6792 C26.9401,21.6792 25.1491,19.8882 25.1491,17.6792 C25.1491,15.4702 26.9401,13.6792 29.1491,13.6792 C31.3581,13.6792 33.1491,15.4702 33.1491,17.6792" id="Fill-46" fill="#EE2F24"></path>
                            <path d="M42.1491,17.6792 C42.1491,19.0602 41.0301,20.1792 39.6491,20.1792 C38.2681,20.1792 37.1491,19.0602 37.1491,17.6792 C37.1491,16.2982 38.2681,15.1792 39.6491,15.1792 C41.0301,15.1792 42.1491,16.2982 42.1491,17.6792" id="Fill-47" fill="#FFFFFF"></path>
                            <path d="M33.1491,31.3459 C33.1491,33.5549 31.3581,35.3459 29.1491,35.3459 C26.9401,35.3459 25.1491,33.5549 25.1491,31.3459 C25.1491,29.1369 26.9401,27.3459 29.1491,27.3459 C31.3581,27.3459 33.1491,29.1369 33.1491,31.3459" id="Fill-48" fill="#3E85C6"></path>
                            <path d="M42.1491,31.3459 C42.1491,32.7269 41.0301,33.8459 39.6491,33.8459 C38.2681,33.8459 37.1491,32.7269 37.1491,31.3459 C37.1491,29.9649 38.2681,28.8459 39.6491,28.8459 C41.0301,28.8459 42.1491,29.9649 42.1491,31.3459" id="Fill-49" fill="#173963"></path>
                        </g>
                        <g id="metre" transform="translate(59.000000, 0.988000)">
                            <path d="M48.9981,6.0348 C44.5851,3.4818 39.4651,2.0128 34.0001,2.0128 L34.0001,32.0128 L48.9981,6.0348 Z" id="Fill-54" fill="#EE2F24"></path>
                            <path d="M34.0001,2.0126 C28.5351,2.0126 23.4151,3.4816 19.0021,6.0346 L34.0001,32.0126 L34.0001,2.0126 Z" id="Fill-55" fill="#FEBC2A"></path>
                            <path d="M59.9776,17.0143 C57.3436,12.4623 53.5506,8.6683 48.9986,6.0343 L33.9996,32.0123 L59.9776,17.0143 Z" id="Fill-56" fill="#173963"></path>
                            <path d="M34.0001,32.0125 L64.0001,32.0125 C64.0001,26.5475 62.5311,21.4275 59.9781,17.0145 L34.0001,32.0125 Z" id="Fill-57" fill="#FFFFFF"></path>
                            <path d="M19.002,6.0348 C14.45,8.6688 10.656,12.4618 8.022,17.0148 L34,32.0128 L19.002,6.0348 Z" id="Fill-58" fill="#CDCCCC"></path>
                            <path d="M8.0224,17.0143 C5.4684,21.4273 4.0004,26.5473 4.0004,32.0123 L34.0004,32.0123 L8.0224,17.0143 Z" id="Fill-59" fill="#FFFFFF"></path>
                            <path d="M34,32.0125 L47.779,18.2335" id="Stroke-60" stroke="#3E85C6" stroke-width="4" stroke-linecap="round"></path>
                            <path d="M33.9999,0.0125 C15.2229,0.0125 -0.0001,15.2345 -0.0001,34.0125 L67.9999,34.0125 C67.9999,15.2345 52.7779,0.0125 33.9999,0.0125 M33.9999,4.0125 C49.1859,4.0125 61.7729,15.3545 63.7339,30.0125 L4.2659,30.0125 C6.2269,15.3545 18.8139,4.0125 33.9999,4.0125" id="Fill-61" fill="#3E85C6"></path>
                        </g>
                        <g id="level" transform="translate(2.000000, 106.000000)" stroke-width="4">
                            <polygon id="Fill-13" stroke="#EE2F24" fill="#FEBC2A" points="0 11.988 123 11.988 123 3.988 0 3.988"></polygon>
                            <path d="M17.0004,7.9882 C17.0004,4.1292 20.1414,0.9882 24.0004,0.9882 C27.8594,0.9882 31.0004,4.1292 31.0004,7.9882 C31.0004,11.8472 27.8594,14.9882 24.0004,14.9882 C20.1414,14.9882 17.0004,11.8472 17.0004,7.9882 Z" id="Fill-15" stroke="#173963" fill="#3E85C6"></path>
                        </g>
                        <g id="level" transform="translate(2.000000, 80.000000)" stroke-width="4">
                            <polygon id="Fill-13" stroke="#EE2F24" fill="#FEBC2A" points="0 10.988 123 10.988 123 2.988 0 2.988"></polygon>
                            <path d="M95,7 C95,3.141 98.141,0 102,0 C105.859,0 109,3.141 109,7 C109,10.859 105.859,14 102,14 C98.141,14 95,10.859 95,7 Z" id="Fill-15" stroke="#173963" fill="#3E85C6"></path>
                        </g>
                        <g id="level" transform="translate(2.000000, 54.000000)" stroke-width="4">
                            <polygon id="Fill-13" stroke="#EE2F24" fill="#FEBC2A" points="0 10.988 123 10.988 123 2.988 0 2.988"></polygon>
                            <path d="M46,7 C46,3.141 49.141,0 53,0 C56.859,0 60,3.141 60,7 C60,10.859 56.859,14 53,14 C49.141,14 46,10.859 46,7 Z" id="Fill-15" stroke="#173963" fill="#3E85C6"></path>
                        </g>
                    </g>
                </g>
            </g>
        </g>
    </g>
</svg>