<?xml version="1.0" encoding="UTF-8" standalone="no"?>
<svg width="140px" height="140px" viewBox="0 0 140 140" version="1.1" xmlns="http://www.w3.org/2000/svg" xmlns:xlink="http://www.w3.org/1999/xlink">
    <g id="Tablet-" stroke="none" stroke-width="1" fill="none" fill-rule="evenodd">
        <g id="iPad-Portrait-Copy" transform="translate(-44.000000, -20.000000)">
            <g id="Group-27" transform="translate(44.000000, 20.000000)">
                <g id="Logo" transform="translate(0.000000, 65.000000)">
                    <path d="M134,75 L6,75 C2.7,75 0,72.3052099 0,69.0115776 L0,5.98842238 C0,2.69479007 2.7,0 6,0 L134,0 C137.3,0 140,2.69479007 140,5.98842238 L140,69.0115776 C140,72.3052099 137.3,75 134,75 Z" id="Fill-2" fill="#221F20"></path>
                    <polygon id="Fill-4" fill="#008943" points="119 17 130 17 130 10 119 10"></polygon>
                    <polygon id="Fill-6" fill="#008943" points="119 27 130 27 130 23 119 23"></polygon>
                    <path d="M25.6142,42.2279 L28.0992,42.2279 C29.8272,42.2279 31.0992,41.8949 31.9182,41.2279 C32.7362,40.5609 33.1452,39.4999 33.1452,38.0459 C33.1452,36.6219 32.7412,35.5969 31.9322,34.9699 C31.1252,34.3439 29.8212,34.0309 28.0232,34.0309 L25.6142,34.0309 L25.6142,42.2279 Z M25.6142,44.6229 L25.6142,53.7739 L22.7812,53.7739 L22.7812,31.6219 L28.1902,31.6219 C33.4432,31.6219 36.0692,33.7179 36.0692,37.9099 C36.0692,40.8089 34.6092,42.7889 31.6902,43.8489 L37.7062,53.7739 L34.3872,53.7739 L29.0842,44.6229 L25.6142,44.6229 Z" id="Fill-7" fill="#008943"></path>
                    <polygon id="Fill-8" fill="#008943" points="49.2978 53.7738 46.4638 53.7738 46.4638 34.1068 40.1308 34.1068 40.1308 31.6218 55.6158 31.6218 55.6158 34.1068 49.2978 34.1068"></polygon>
                    <path d="M67.3876,42.0765 L73.7826,42.0765 L73.7826,52.9405 C71.8126,53.6975 69.6916,54.0765 67.4186,54.0765 C64.7716,54.0765 62.7026,53.0695 61.2136,51.0545 C59.7236,49.0385 58.9786,46.2435 58.9786,42.6675 C58.9786,39.1215 59.7966,36.3415 61.4336,34.3265 C63.0706,32.3105 65.3226,31.3035 68.1916,31.3035 C70.1306,31.3035 71.8776,31.7375 73.4336,32.6065 L72.3426,35.0605 C70.8676,34.2125 69.4536,33.7885 68.1006,33.7885 C66.1606,33.7885 64.6506,34.5735 63.5706,36.1445 C62.4896,37.7155 61.9486,39.8995 61.9486,42.6975 C61.9486,48.6375 63.9386,51.6065 67.9186,51.6065 C68.8986,51.6065 69.9186,51.4605 70.9796,51.1675 L70.9796,44.5615 L67.3876,44.5615 L67.3876,42.0765 Z" id="Fill-9" fill="#008943"></path>
                    <polygon id="Fill-10" fill="#008943" points="75.586 58.683 94.662 58.683 94.662 56.562 75.586 56.562"></polygon>
                </g>
                <g id="Levels" transform="translate(75.000000, 0.000000)">
                    <polygon id="Fill-11" fill="#ED2E23" points="0 9 65 9 65 5 0 5"></polygon>
                    <path d="M26,12.0003 C23.243,12.0003 21,9.7573 21,7.0003 C21,4.2433 23.243,2.0003 26,2.0003 C28.757,2.0003 31,4.2433 31,7.0003 C31,9.7573 28.757,12.0003 26,12.0003" id="Fill-12" fill="#FDBB29"></path>
                    <path d="M26,0.0001 C22.134,0.0001 19,3.1341 19,7.0001 C19,10.8661 22.134,14.0001 26,14.0001 C29.866,14.0001 33,10.8661 33,7.0001 C33,3.1341 29.866,0.0001 26,0.0001 M26,4.0001 C27.654,4.0001 29,5.3461 29,7.0001 C29,8.6541 27.654,10.0001 26,10.0001 C24.346,10.0001 23,8.6541 23,7.0001 C23,5.3461 24.346,4.0001 26,4.0001" id="Fill-13" fill="#173862"></path>
                    <polygon id="Fill-14" fill="#ED2E23" points="0 49.855 65 49.855 65 45.855 0 45.855"></polygon>
                    <path d="M26,52.8548 C23.243,52.8548 21,50.6118 21,47.8548 C21,45.0978 23.243,42.8548 26,42.8548 C28.757,42.8548 31,45.0978 31,47.8548 C31,50.6118 28.757,52.8548 26,52.8548" id="Fill-15" fill="#FDBB29"></path>
                    <path d="M26,40.8546 C22.134,40.8546 19,43.9886 19,47.8546 C19,51.7206 22.134,54.8546 26,54.8546 C29.866,54.8546 33,51.7206 33,47.8546 C33,43.9886 29.866,40.8546 26,40.8546 M26,44.8546 C27.654,44.8546 29,46.2006 29,47.8546 C29,49.5086 27.654,50.8546 26,50.8546 C24.346,50.8546 23,49.5086 23,47.8546 C23,46.2006 24.346,44.8546 26,44.8546" id="Fill-16" fill="#173862"></path>
                    <polygon id="Fill-17" fill="#ED2E23" points="0 29.427 65 29.427 65 25.427 0 25.427"></polygon>
                    <path d="M49.5,32.4271 C46.743,32.4271 44.5,30.1841 44.5,27.4271 C44.5,24.6701 46.743,22.4271 49.5,22.4271 C52.257,22.4271 54.5,24.6701 54.5,27.4271 C54.5,30.1841 52.257,32.4271 49.5,32.4271" id="Fill-18" fill="#FDBB29"></path>
                    <path d="M49.5,20.4273 C45.634,20.4273 42.5,23.5613 42.5,27.4273 C42.5,31.2933 45.634,34.4273 49.5,34.4273 C53.366,34.4273 56.5,31.2933 56.5,27.4273 C56.5,23.5613 53.366,20.4273 49.5,20.4273 M49.5,24.4273 C51.154,24.4273 52.5,25.7733 52.5,27.4273 C52.5,29.0813 51.154,30.4273 49.5,30.4273 C47.846,30.4273 46.5,29.0813 46.5,27.4273 C46.5,25.7733 47.846,24.4273 49.5,24.4273" id="Fill-19" fill="#173862"></path>
                </g>
                <g id="Printer">
                    <polygon id="Fill-20" fill="#173862" points="0 12 65 12 65 0 0 0"></polygon>
                    <polygon id="Fill-21" fill="#FEFEFE" points="9 52.855 56 52.855 56 6.855 9 6.855"></polygon>
                    <path d="M7,55 L58,55 L58,5 L7,5 L7,55 Z M11,51 L54,51 L54,9 L11,9 L11,51 Z" id="Fill-22" fill="#173862"></path>
                    <path d="M17,16 L48,16" id="Stroke-23" stroke="#3D85C5" stroke-width="4"></path>
                    <path d="M17,25 L43,25" id="Stroke-24" stroke="#3D85C5" stroke-width="4"></path>
                    <path d="M17,34 L36,34" id="Stroke-25" stroke="#3D85C5" stroke-width="4"></path>
                    <path d="M17,43 L47,43" id="Stroke-26" stroke="#3D85C5" stroke-width="4"></path>
                </g>
            </g>
        </g>
    </g>
</svg>