<?xml version="1.0" encoding="UTF-8" standalone="no"?>
<svg width="126px" height="124px" viewBox="0 0 126 124" version="1.1" xmlns="http://www.w3.org/2000/svg" xmlns:xlink="http://www.w3.org/1999/xlink">
    <!-- Generator: Sketch 41.2 (35397) - http://www.bohemiancoding.com/sketch -->
    <title>yellow panel elements</title>
    <desc>Created with Sketch.</desc>
    <defs>
        <rect id="path-1" x="0" y="0" width="123" height="62"></rect>
        <mask id="mask-2" maskContentUnits="userSpaceOnUse" maskUnits="objectBoundingBox" x="0" y="0" width="123" height="62" fill="white">
            <use xlink:href="#path-1"></use>
        </mask>
    </defs>
    <g id="Page-1" stroke="none" stroke-width="1" fill="none" fill-rule="evenodd">
        <g id="Desktop-HD" transform="translate(-1307.000000, -29.000000)">
            <g id="yellow-panel-elements" transform="translate(1309.000000, 29.000000)">
                <g id="top-bar">
                    <polygon id="Fill-94" fill="#FEFEFE" points="0 6.947 20 6.947 20 0.947 0 0.947"></polygon>
                    <polygon id="Fill-96" fill="#173862" points="59 7 77.2148937 7 77.2148937 1 59 1"></polygon>
                    <polygon id="Fill-97" fill="#ED2E23" points="111 7 123 7 123 1 111 1"></polygon>
                    <polygon id="Fill-98" fill="#FEFEFE" points="76.9948474 6.947 111 6.947 111 0.947 76.9948474 0.947"></polygon>
                    <polygon id="Fill-99" fill="#ED2E23" points="20.0051526 6.947 46.0051526 6.947 46.0051526 0.947 20.0051526 0.947"></polygon>
                    <polygon id="Fill-100" fill="#3D85C5" points="46.0051526 6.947 59.0051526 6.947 59.0051526 0.947 46.0051526 0.947"></polygon>
                </g>
                <g id="graph" transform="translate(0.000000, 17.000000)">
                    <polygon id="Fill-101" fill="#173862" points="1.2867 62.021 121.2867 62.021 121.2867 0.102328272 1.2867 0.102328272"></polygon>
                    <polyline id="Path-2" stroke="#FFFFFF" stroke-width="4" points="3 38.804878 17 28.195122 31 48 48 19 68 42.3414634 83 28.195122 97 42.3414634 109 23 121 39.5121951"></polyline>
                    <use id="Rectangle-2" stroke="#ED2F24" mask="url(#mask-2)" stroke-width="10" xlink:href="#path-1"></use>
                </g>
                <g id="speaker" transform="translate(40.000000, 88.000000)" fill="#3D85C5">
                    <path d="M7,17.5 C7,19.433 5.433,21 3.5,21 C1.567,21 0,19.433 0,17.5 C0,15.567 1.567,14 3.5,14 C5.433,14 7,15.567 7,17.5" id="Fill-20"></path>
                    <path d="M7,3.5 C7,5.433 5.433,7 3.5,7 C1.567,7 0,5.433 0,3.5 C0,1.567 1.567,0 3.5,0 C5.433,0 7,1.567 7,3.5" id="Fill-20-Copy"></path>
                    <path d="M21,17.5 C21,19.433 19.433,21 17.5,21 C15.567,21 14,19.433 14,17.5 C14,15.567 15.567,14 17.5,14 C19.433,14 21,15.567 21,17.5" id="Fill-21"></path>
                    <path d="M21,3.5 C21,5.433 19.433,7 17.5,7 C15.567,7 14,5.433 14,3.5 C14,1.567 15.567,0 17.5,0 C19.433,0 21,1.567 21,3.5" id="Fill-21-Copy"></path>
                    <path d="M31.5,21 C29.567,21 28,19.433 28,17.5 C28,15.567 29.567,14 31.5,14 C33.433,14 35,15.567 35,17.5 C35,19.433 33.433,21 31.5,21 Z" id="Fill-22"></path>
                    <path d="M31.5,7 C29.567,7 28,5.433 28,3.5 C28,1.567 29.567,0 31.5,0 C33.433,0 35,1.567 35,3.5 C35,5.433 33.433,7 31.5,7 Z" id="Fill-22-Copy"></path>
                    <path d="M7,31.5 C7,33.433 5.433,35 3.5,35 C1.567,35 0,33.433 0,31.5 C0,29.567 1.567,28 3.5,28 C5.433,28 7,29.567 7,31.5" id="Fill-28"></path>
                    <path d="M21,31.5 C21,33.433 19.433,35 17.5,35 C15.567,35 14,33.433 14,31.5 C14,29.567 15.567,28 17.5,28 C19.433,28 21,29.567 21,31.5" id="Fill-29"></path>
                    <path d="M35,31.5 C35,33.433 33.433,35 31.5,35 C29.567,35 28,33.433 28,31.5 C28,29.567 29.567,28 31.5,28 C33.433,28 35,29.567 35,31.5" id="Fill-30"></path>
                </g>
                <g id="circle-rects" transform="translate(0.000000, 91.000000)">
                    <g id="circle-rect" transform="translate(13.000000, 23.000000) rotate(-270.000000) translate(-13.000000, -23.000000) translate(8.000000, 10.000000)">
                        <path d="M4.7494,16 C7.37265193,16 9.4988,18.1261481 9.4988,20.7494 C9.4988,23.3726519 7.37265193,25.4988 4.7494,25.4988 C2.12614807,25.4988 -3.55271368e-15,23.3726519 -3.55271368e-15,20.7494 C-3.55271368e-15,18.1261481 2.12614807,16 4.7494,16 Z" id="Fill-100" stroke="#FFFFFF" stroke-width="4" fill="#EE2F24"></path>
                        <polygon id="Fill-102" fill="#173862" points="3 10 7 10 7 0 3 0"></polygon>
                    </g>
                    <g id="circle-rect" transform="translate(13.000000, 5.000000) rotate(-90.000000) translate(-13.000000, -5.000000) translate(8.000000, -8.000000)">
                        <path d="M4.7494,16 C7.37265193,16 9.4988,18.1261481 9.4988,20.7494 C9.4988,23.3726519 7.37265193,25.4988 4.7494,25.4988 C2.12614807,25.4988 1.77635684e-15,23.3726519 1.77635684e-15,20.7494 C1.77635684e-15,18.1261481 2.12614807,16 4.7494,16 Z" id="Fill-100" stroke="#FFFFFF" stroke-width="4" fill="#EE2F24"></path>
                        <polygon id="Fill-102" fill="#173862" points="3 10 7 10 7 0 3 0"></polygon>
                    </g>
                </g>
                <g id="gear" transform="translate(88.000000, 88.000000)">
                    <path d="M24.283574,0 L10,34.4835379" id="Stroke-79" stroke="#173963" stroke-width="4"></path>
                    <path d="M34.4835379,10 L0,24.283574" id="Stroke-80" stroke="#173963" stroke-width="4"></path>
                    <path d="M10,0 L24.283574,34.4835379" id="Stroke-81" stroke="#173963" stroke-width="4"></path>
                    <path d="M0,10 L34.4835379,24.283574" id="Stroke-82" stroke="#173963" stroke-width="4"></path>
                    <path d="M4,17 C4,9.82028571 9.82028571,4 17,4 C24.1797143,4 30,9.82028571 30,17 C30,24.1797143 24.1797143,30 17,30 C9.82028571,30 4,24.1797143 4,17 Z" id="Fill-83" fill="#CDCCCC"></path>
                </g>
            </g>
        </g>
    </g>
</svg>