<?xml version="1.0" encoding="UTF-8" standalone="no"?>
<svg width="83px" height="76px" viewBox="0 0 83 76" version="1.1" xmlns="http://www.w3.org/2000/svg" xmlns:xlink="http://www.w3.org/1999/xlink">
    <!-- Generator: Sketch 41.2 (35397) - http://www.bohemiancoding.com/sketch -->
    <title>yellow-panel-elements-sm</title>
    <desc>Created with Sketch.</desc>
    <defs></defs>
    <g id="Tablet" stroke="none" stroke-width="1" fill="none" fill-rule="evenodd">
        <g id="iPad-Landscape-Copy" transform="translate(-916.000000, -22.000000)">
            <g id="Header---Tablet-and-small-notebooks-landscape">
                <g id="Header-Illustration-Desktop">
                    <g id="Panel-180x180---Yellow" transform="translate(888.000000, 0.000000)">
                        <g id="yellow-panel-elements-sm" transform="translate(28.000000, 22.000000)">
                            <g id="Talk-Box">
                                <path d="M50,0 L6,0 C2.7,0 0,2.7 0,6 L0,56 L56,56 L56,6 C56,2.7 53.3,0 50,0 M50,4 C51.084,4 52,4.916 52,6 L52,52 L4,52 L4,6 C4,4.916 4.916,4 6,4 L50,4" id="Fill-388" fill="#FFFFFF"></path>
                                <path d="M56,52 L0,52 L0,69.858 C0,73.158 2.7,75.858 6,75.858 L50,75.858 C53.3,75.858 56,73.158 56,69.858 L56,52 Z M52,56 L52,69.858 C52,70.942 51.084,71.858 50,71.858 L6,71.858 C4.916,71.858 4,70.942 4,69.858 L4,56 L52,56 L52,56 Z" id="Fill-391" fill="#FFFFFF"></path>
                                <g id="speaker" transform="translate(8.000000, 8.000000)">
                                    <path d="M4,2 C4,3.105 3.105,4 2,4 C0.895,4 0,3.105 0,2 C0,0.895 0.895,0 2,0 C3.105,0 4,0.895 4,2" id="Fill-393" fill="#3E85C6"></path>
                                    <path d="M16,2 C16,3.105 15.105,4 14,4 C12.895,4 12,3.105 12,2 C12,0.895 12.895,0 14,0 C15.105,0 16,0.895 16,2" id="Fill-395" fill="#3E85C6"></path>
                                    <path d="M22,2 C22,3.105 21.105,4 20,4 C18.895,4 18,3.105 18,2 C18,0.895 18.895,0 20,0 C21.105,0 22,0.895 22,2" id="Fill-397" fill="#3E85C6"></path>
                                    <path d="M28,2 C28,3.105 27.105,4 26,4 C24.895,4 24,3.105 24,2 C24,0.895 24.895,0 26,0 C27.105,0 28,0.895 28,2" id="Fill-399" fill="#3E85C6"></path>
                                    <path d="M40,2 C40,3.105 39.105,4 38,4 C36.895,4 36,3.105 36,2 C36,0.895 36.895,0 38,0 C39.105,0 40,0.895 40,2" id="Fill-401" fill="#3E85C6"></path>
                                    <path d="M10,8 C10,9.105 9.105,10 8,10 C6.895,10 6,9.105 6,8 C6,6.895 6.895,6 8,6 C9.105,6 10,6.895 10,8" id="Fill-403" fill="#3E85C6"></path>
                                    <path d="M16,8 C16,9.105 15.105,10 14,10 C12.895,10 12,9.105 12,8 C12,6.895 12.895,6 14,6 C15.105,6 16,6.895 16,8" id="Fill-405" fill="#3E85C6"></path>
                                    <path d="M22,8 C22,9.105 21.105,10 20,10 C18.895,10 18,9.105 18,8 C18,6.895 18.895,6 20,6 C21.105,6 22,6.895 22,8" id="Fill-407" fill="#3E85C6"></path>
                                    <path d="M28,8 C28,9.105 27.105,10 26,10 C24.895,10 24,9.105 24,8 C24,6.895 24.895,6 26,6 C27.105,6 28,6.895 28,8" id="Fill-409" fill="#3E85C6"></path>
                                    <path d="M34,8 C34,9.105 33.105,10 32,10 C30.895,10 30,9.105 30,8 C30,6.895 30.895,6 32,6 C33.105,6 34,6.895 34,8" id="Fill-411" fill="#FFFFFF"></path>
                                    <path d="M40,8 C40,9.105 39.105,10 38,10 C36.895,10 36,9.105 36,8 C36,6.895 36.895,6 38,6 C39.105,6 40,6.895 40,8" id="Fill-413" fill="#3E85C6"></path>
                                    <path d="M4,14 C4,15.105 3.105,16 2,16 C0.895,16 0,15.105 0,14 C0,12.895 0.895,12 2,12 C3.105,12 4,12.895 4,14" id="Fill-415" fill="#3E85C6"></path>
                                    <path d="M10,14 C10,15.105 9.105,16 8,16 C6.895,16 6,15.105 6,14 C6,12.895 6.895,12 8,12 C9.105,12 10,12.895 10,14" id="Fill-417" fill="#3E85C6"></path>
                                    <path d="M16,14 C16,15.105 15.105,16 14,16 C12.895,16 12,15.105 12,14 C12,12.895 12.895,12 14,12 C15.105,12 16,12.895 16,14" id="Fill-419" fill="#3E85C6"></path>
                                    <path d="M28,14 C28,15.105 27.105,16 26,16 C24.895,16 24,15.105 24,14 C24,12.895 24.895,12 26,12 C27.105,12 28,12.895 28,14" id="Fill-421" fill="#3E85C6"></path>
                                    <path d="M34,14 C34,15.105 33.105,16 32,16 C30.895,16 30,15.105 30,14 C30,12.895 30.895,12 32,12 C33.105,12 34,12.895 34,14" id="Fill-423" fill="#3E85C6"></path>
                                    <path d="M40,14 C40,15.105 39.105,16 38,16 C36.895,16 36,15.105 36,14 C36,12.895 36.895,12 38,12 C39.105,12 40,12.895 40,14" id="Fill-425" fill="#3E85C6"></path>
                                    <path d="M4,20 C4,21.105 3.105,22 2,22 C0.895,22 0,21.105 0,20 C0,18.895 0.895,18 2,18 C3.105,18 4,18.895 4,20" id="Fill-427" fill="#3E85C6"></path>
                                    <path d="M10,20 C10,21.105 9.105,22 8,22 C6.895,22 6,21.105 6,20 C6,18.895 6.895,18 8,18 C9.105,18 10,18.895 10,20" id="Fill-429" fill="#3E85C6"></path>
                                    <path d="M22,20 C22,21.105 21.105,22 20,22 C18.895,22 18,21.105 18,20 C18,18.895 18.895,18 20,18 C21.105,18 22,18.895 22,20" id="Fill-431" fill="#EE2F24"></path>
                                    <path d="M34,20 C34,21.105 33.105,22 32,22 C30.895,22 30,21.105 30,20 C30,18.895 30.895,18 32,18 C33.105,18 34,18.895 34,20" id="Fill-433" fill="#3E85C6"></path>
                                    <path d="M40,20 C40,21.105 39.105,22 38,22 C36.895,22 36,21.105 36,20 C36,18.895 36.895,18 38,18 C39.105,18 40,18.895 40,20" id="Fill-435" fill="#3E85C6"></path>
                                    <path d="M4,26 C4,27.105 3.105,28 2,28 C0.895,28 0,27.105 0,26 C0,24.895 0.895,24 2,24 C3.105,24 4,24.895 4,26" id="Fill-437" fill="#3E85C6"></path>
                                    <path d="M10,26 C10,27.105 9.105,28 8,28 C6.895,28 6,27.105 6,26 C6,24.895 6.895,24 8,24 C9.105,24 10,24.895 10,26" id="Fill-439" fill="#3E85C6"></path>
                                    <path d="M16,26 C16,27.105 15.105,28 14,28 C12.895,28 12,27.105 12,26 C12,24.895 12.895,24 14,24 C15.105,24 16,24.895 16,26" id="Fill-441" fill="#3E85C6"></path>
                                    <path d="M28,26 C28,27.105 27.105,28 26,28 C24.895,28 24,27.105 24,26 C24,24.895 24.895,24 26,24 C27.105,24 28,24.895 28,26" id="Fill-443" fill="#3E85C6"></path>
                                    <path d="M34,26 C34,27.105 33.105,28 32,28 C30.895,28 30,27.105 30,26 C30,24.895 30.895,24 32,24 C33.105,24 34,24.895 34,26" id="Fill-445" fill="#3E85C6"></path>
                                    <path d="M40,26 C40,27.105 39.105,28 38,28 C36.895,28 36,27.105 36,26 C36,24.895 36.895,24 38,24 C39.105,24 40,24.895 40,26" id="Fill-447" fill="#3E85C6"></path>
                                    <path d="M10,32 C10,33.105 9.105,34 8,34 C6.895,34 6,33.105 6,32 C6,30.895 6.895,30 8,30 C9.105,30 10,30.895 10,32" id="Fill-449" fill="#3E85C6"></path>
                                    <path d="M16,32 C16,33.105 15.105,34 14,34 C12.895,34 12,33.105 12,32 C12,30.895 12.895,30 14,30 C15.105,30 16,30.895 16,32" id="Fill-451" fill="#3E85C6"></path>
                                    <path d="M22,32 C22,33.105 21.105,34 20,34 C18.895,34 18,33.105 18,32 C18,30.895 18.895,30 20,30 C21.105,30 22,30.895 22,32" id="Fill-453" fill="#3E85C6"></path>
                                    <path d="M28,32 C28,33.105 27.105,34 26,34 C24.895,34 24,33.105 24,32 C24,30.895 24.895,30 26,30 C27.105,30 28,30.895 28,32" id="Fill-455" fill="#3E85C6"></path>
                                    <path d="M34,32 C34,33.105 33.105,34 32,34 C30.895,34 30,33.105 30,32 C30,30.895 30.895,30 32,30 C33.105,30 34,30.895 34,32" id="Fill-457" fill="#3E85C6"></path>
                                    <path d="M4,38 C4,39.105 3.105,40 2,40 C0.895,40 0,39.105 0,38 C0,36.895 0.895,36 2,36 C3.105,36 4,36.895 4,38" id="Fill-459" fill="#3E85C6"></path>
                                    <path d="M16,38 C16,39.105 15.105,40 14,40 C12.895,40 12,39.105 12,38 C12,36.895 12.895,36 14,36 C15.105,36 16,36.895 16,38" id="Fill-461" fill="#3E85C6"></path>
                                    <path d="M22,38 C22,39.105 21.105,40 20,40 C18.895,40 18,39.105 18,38 C18,36.895 18.895,36 20,36 C21.105,36 22,36.895 22,38" id="Fill-463" fill="#3E85C6"></path>
                                    <path d="M28,38 C28,39.105 27.105,40 26,40 C24.895,40 24,39.105 24,38 C24,36.895 24.895,36 26,36 C27.105,36 28,36.895 28,38" id="Fill-465" fill="#3E85C6"></path>
                                    <path d="M40,38 C40,39.105 39.105,40 38,40 C36.895,40 36,39.105 36,38 C36,36.895 36.895,36 38,36 C39.105,36 40,36.895 40,38" id="Fill-467" fill="#3E85C6"></path>
                                </g>
                                <polygon id="Fill-469" fill="#173963" points="8 68 36 68 36 60 8 60"></polygon>
                                <polygon id="Fill-471" fill="#EE2F24" points="8 68 36 68 36 64 8 64"></polygon>
                                <path d="M48,64 C48,66.209 46.209,68 44,68 C41.791,68 40,66.209 40,64 C40,61.791 41.791,60 44,60 C46.209,60 48,61.791 48,64" id="Fill-472" fill="#FFFFFF"></path>
                            </g>
                            <path d="M71,69 C71,66.2429167 73.2429167,64 76,64 C78.7570833,64 81,66.2429167 81,69 C81,71.7570833 78.7570833,74 76,74 C73.2429167,74 71,71.7570833 71,69 Z" id="Fill-89" stroke="#EE2F24" stroke-width="4" fill="#CDCCCC"></path>
                            <path d="M71,7 C71,4.24291667 73.2429167,2 76,2 C78.7570833,2 81,4.24291667 81,7 C81,9.75708333 78.7570833,12 76,12 C73.2429167,12 71,9.75708333 71,7 Z" id="Fill-89-Copy-3" stroke="#EE2F24" stroke-width="4" fill="#CDCCCC"></path>
                            <g id="plug-copy" transform="translate(76.000000, 38.500000) rotate(-360.000000) translate(-76.000000, -38.500000) translate(71.000000, 18.000000)">
                                <path d="M5,15 C7.76166667,15 10,17.2383333 10,20 C10,22.7616667 7.76166667,25 5,25 C2.23833333,25 1.42108547e-14,22.7616667 1.42108547e-14,20 C1.42108547e-14,17.2383333 2.23833333,15 5,15 Z" id="Fill-100-Copy-2" stroke="#FFFFFF" stroke-width="4" fill="#FEBC2A"></path>
                                <polygon id="Fill-102" fill="#173963" points="3 10 7 10 7 0 3 0"></polygon>
                                <polygon id="Fill-102-Copy-4" fill="#173963" points="3 41 7 41 7 31 3 31"></polygon>
                            </g>
                        </g>
                    </g>
                </g>
            </g>
        </g>
    </g>
</svg>